<?xml version="1.0" encoding="UTF-8"?>
<svg version="1.1" xmlns="http://www.w3.org/2000/svg" width="2048" height="1314">
<path d="M0 0 C0.70769531 0.63679688 1.41539063 1.27359375 2.14453125 1.9296875 C2.14453125 2.5896875 2.14453125 3.2496875 2.14453125 3.9296875 C3.46453125 4.5896875 4.78453125 5.2496875 6.14453125 5.9296875 C6.14453125 6.5896875 6.14453125 7.2496875 6.14453125 7.9296875 C7.13453125 8.2596875 8.12453125 8.5896875 9.14453125 8.9296875 C19.37080772 21.93751117 20.5751186 37.02105531 19.14453125 52.9296875 C17.57754238 61.62693931 13.28905614 69.78310613 8.14453125 76.9296875 C7.48453125 76.9296875 6.82453125 76.9296875 6.14453125 76.9296875 C6.02078125 77.7340625 6.02078125 77.7340625 5.89453125 78.5546875 C4.86871854 81.80309441 3.17889231 84.21720609 1.14453125 86.9296875 C0.48453125 86.9296875 -0.17546875 86.9296875 -0.85546875 86.9296875 C-1.08234375 87.61417969 -1.30921875 88.29867187 -1.54296875 89.00390625 C-3.18975594 92.67486936 -5.39058089 95.58360977 -7.85546875 98.7421875 C-8.30664062 99.33966797 -8.7578125 99.93714844 -9.22265625 100.55273438 C-10.38184478 102.05316331 -11.61360794 103.49693254 -12.85546875 104.9296875 C-13.51546875 104.9296875 -14.17546875 104.9296875 -14.85546875 104.9296875 C-15.07847656 105.45046875 -15.30148437 105.97125 -15.53125 106.5078125 C-17.35243832 109.83859939 -19.68454803 112.72079057 -22.04296875 115.6796875 C-22.53909668 116.30657471 -23.03522461 116.93346191 -23.54638672 117.5793457 C-26.63691401 121.46287032 -29.81017485 125.24757452 -33.1171875 128.94921875 C-37.63509259 134.09658477 -41.92607402 139.45517269 -46.13671875 144.85546875 C-46.84828125 145.76683594 -47.55984375 146.67820313 -48.29296875 147.6171875 C-48.93105469 148.44605469 -49.56914063 149.27492187 -50.2265625 150.12890625 C-51.03287109 151.02029297 -51.03287109 151.02029297 -51.85546875 151.9296875 C-52.51546875 151.9296875 -53.17546875 151.9296875 -53.85546875 151.9296875 C-54.08234375 152.45046875 -54.30921875 152.97125 -54.54296875 153.5078125 C-56.33066236 156.80653285 -58.57437199 159.71426171 -60.85546875 162.6796875 C-61.30664062 163.28167969 -61.7578125 163.88367188 -62.22265625 164.50390625 C-63.38369377 166.01875106 -64.61474814 167.47938571 -65.85546875 168.9296875 C-66.51546875 168.9296875 -67.17546875 168.9296875 -67.85546875 168.9296875 C-68.25765625 170.0434375 -68.25765625 170.0434375 -68.66796875 171.1796875 C-69.80823626 173.82030699 -70.94927181 175.78521594 -72.85546875 177.9296875 C-73.51546875 177.9296875 -74.17546875 177.9296875 -74.85546875 177.9296875 C-75.51546875 179.5796875 -76.17546875 181.2296875 -76.85546875 182.9296875 C-77.51546875 182.9296875 -78.17546875 182.9296875 -78.85546875 182.9296875 C-79.18546875 184.2496875 -79.51546875 185.5696875 -79.85546875 186.9296875 C-80.51546875 186.9296875 -81.17546875 186.9296875 -81.85546875 186.9296875 C-82.25765625 188.0434375 -82.25765625 188.0434375 -82.66796875 189.1796875 C-83.80823626 191.82030699 -84.94927181 193.78521594 -86.85546875 195.9296875 C-87.51546875 195.9296875 -88.17546875 195.9296875 -88.85546875 195.9296875 C-89.51546875 197.5796875 -90.17546875 199.2296875 -90.85546875 200.9296875 C-91.51546875 200.9296875 -92.17546875 200.9296875 -92.85546875 200.9296875 C-93.24992187 201.80367188 -93.24992187 201.80367188 -93.65234375 202.6953125 C-94.91258426 205.03575917 -96.31166564 206.72428051 -98.10546875 208.6796875 C-101.19713331 212.11343603 -103.94034391 215.68074252 -106.59375 219.4609375 C-107.01011719 219.945625 -107.42648437 220.4303125 -107.85546875 220.9296875 C-108.51546875 220.9296875 -109.17546875 220.9296875 -109.85546875 220.9296875 C-110.12359375 221.5071875 -110.39171875 222.0846875 -110.66796875 222.6796875 C-111.88476064 224.98518793 -113.15880754 226.95024942 -114.85546875 228.9296875 C-115.51546875 228.9296875 -116.17546875 228.9296875 -116.85546875 228.9296875 C-117.11714844 229.49816406 -117.37882812 230.06664062 -117.6484375 230.65234375 C-120.9360987 236.85527734 -125.85322391 242.07036395 -130.85546875 246.9296875 C-131.51546875 247.9196875 -132.17546875 248.9096875 -132.85546875 249.9296875 C-133.51546875 249.9296875 -134.17546875 249.9296875 -134.85546875 249.9296875 C-135.06945313 250.45304687 -135.2834375 250.97640625 -135.50390625 251.515625 C-137.40516331 254.91151188 -139.9145585 257.64307787 -142.48046875 260.5546875 C-146.93822684 265.6644078 -151.22093381 270.83964375 -155.33203125 276.234375 C-156.08613281 277.07355469 -156.08613281 277.07355469 -156.85546875 277.9296875 C-157.51546875 277.9296875 -158.17546875 277.9296875 -158.85546875 277.9296875 C-159.11714844 278.49816406 -159.37882812 279.06664062 -159.6484375 279.65234375 C-162.9360987 285.85527734 -167.85322391 291.07036395 -172.85546875 295.9296875 C-173.51546875 296.9196875 -174.17546875 297.9096875 -174.85546875 298.9296875 C-175.51546875 298.9296875 -176.17546875 298.9296875 -176.85546875 298.9296875 C-177.09652344 299.49042969 -177.33757812 300.05117188 -177.5859375 300.62890625 C-179.11725105 303.40411757 -181.0014318 305.43000101 -183.16796875 307.7421875 C-185.92904712 310.7385346 -188.50094647 313.6852775 -190.79296875 317.0546875 C-191.47359375 318.0034375 -192.15421875 318.9521875 -192.85546875 319.9296875 C-193.51546875 319.9296875 -194.17546875 319.9296875 -194.85546875 319.9296875 C-195.25765625 320.7959375 -195.25765625 320.7959375 -195.66796875 321.6796875 C-196.88476064 323.98518793 -198.15880754 325.95024942 -199.85546875 327.9296875 C-200.51546875 327.9296875 -201.17546875 327.9296875 -201.85546875 327.9296875 C-202.13092529 328.52281738 -202.40638184 329.11594727 -202.69018555 329.72705078 C-203.79841774 331.82184877 -204.94740103 333.39351754 -206.5 335.171875 C-207.01240234 335.76355469 -207.52480469 336.35523438 -208.05273438 336.96484375 C-208.58576172 337.57199219 -209.11878906 338.17914063 -209.66796875 338.8046875 C-210.71653163 340.01008117 -211.76471239 341.21580736 -212.8125 342.421875 C-213.32248535 343.00420898 -213.8324707 343.58654297 -214.35791016 344.18652344 C-215.81826038 345.88637681 -217.21731592 347.62528896 -218.6171875 349.375 C-219.35582031 350.21804688 -220.09445312 351.06109375 -220.85546875 351.9296875 C-221.51546875 351.9296875 -222.17546875 351.9296875 -222.85546875 351.9296875 C-223.22285156 353.02216797 -223.22285156 353.02216797 -223.59765625 354.13671875 C-225.00020943 357.25108373 -226.63460501 359.14463077 -228.98046875 361.6171875 C-232.9957051 365.93080975 -236.65719619 370.40670333 -240.2265625 375.09375 C-240.76410156 375.69960938 -241.30164062 376.30546875 -241.85546875 376.9296875 C-242.51546875 376.9296875 -243.17546875 376.9296875 -243.85546875 376.9296875 C-244.10167969 377.49558594 -244.34789062 378.06148438 -244.6015625 378.64453125 C-246.07083099 381.32217008 -247.8329931 383.26012362 -249.91796875 385.4921875 C-253.18565348 389.05265678 -256.32026068 392.6690167 -259.35546875 396.4296875 C-262.97502256 400.90534447 -266.75989249 405.17993924 -270.64453125 409.42578125 C-273.67222149 412.85466719 -276.455953 416.45557591 -279.2265625 420.09375 C-279.76410156 420.69960938 -280.30164062 421.30546875 -280.85546875 421.9296875 C-281.51546875 421.9296875 -282.17546875 421.9296875 -282.85546875 421.9296875 C-283.10039063 422.48398437 -283.3453125 423.03828125 -283.59765625 423.609375 C-285.10750667 426.39462701 -286.94714008 428.62461177 -288.98046875 431.0546875 C-292.82869505 435.67380242 -296.55925439 440.36511006 -300.2265625 445.12890625 C-300.76410156 445.72316406 -301.30164062 446.31742187 -301.85546875 446.9296875 C-302.51546875 446.9296875 -303.17546875 446.9296875 -303.85546875 446.9296875 C-304.10167969 447.49558594 -304.34789062 448.06148438 -304.6015625 448.64453125 C-306.07083099 451.32217008 -307.8329931 453.26012362 -309.91796875 455.4921875 C-314.786866 460.79944206 -319.32037024 466.33753595 -323.85546875 471.9296875 C-325.80560921 474.32986038 -327.77096193 476.64181416 -329.85546875 478.9296875 C-330.51546875 478.9296875 -331.17546875 478.9296875 -331.85546875 478.9296875 C-332.04109375 479.5896875 -332.22671875 480.2496875 -332.41796875 480.9296875 C-334.46355649 485.19874018 -337.42731518 488.67132456 -340.85546875 491.9296875 C-341.51546875 491.9296875 -342.17546875 491.9296875 -342.85546875 491.9296875 C-343.25765625 492.7959375 -343.25765625 492.7959375 -343.66796875 493.6796875 C-344.88476064 495.98518793 -346.15880754 497.95024942 -347.85546875 499.9296875 C-348.51546875 499.9296875 -349.17546875 499.9296875 -349.85546875 499.9296875 C-350.09652344 500.47882813 -350.33757812 501.02796875 -350.5859375 501.59375 C-352.14814714 504.46821573 -354.07384597 506.79174016 -356.16796875 509.3046875 C-357.37066406 510.74908203 -357.37066406 510.74908203 -358.59765625 512.22265625 C-359.34273437 513.11597656 -360.0878125 514.00929688 -360.85546875 514.9296875 C-361.66371094 515.94482422 -361.66371094 515.94482422 -362.48828125 516.98046875 C-363.5666032 518.33321395 -364.70399396 519.63864001 -365.85546875 520.9296875 C-366.51546875 520.9296875 -367.17546875 520.9296875 -367.85546875 520.9296875 C-368.21511719 521.75146484 -368.21511719 521.75146484 -368.58203125 522.58984375 C-370.16028658 525.4897669 -372.11488552 527.83340758 -374.23046875 530.3671875 C-377.68697886 534.52272936 -377.68697886 534.52272936 -381.01953125 538.77734375 C-381.62539062 539.48761719 -382.23125 540.19789063 -382.85546875 540.9296875 C-383.51546875 540.9296875 -384.17546875 540.9296875 -384.85546875 540.9296875 C-385.25765625 541.7959375 -385.25765625 541.7959375 -385.66796875 542.6796875 C-386.88476064 544.98518793 -388.15880754 546.95024942 -389.85546875 548.9296875 C-390.51546875 548.9296875 -391.17546875 548.9296875 -391.85546875 548.9296875 C-392.12029053 549.52571777 -392.3851123 550.12174805 -392.65795898 550.73583984 C-393.88702463 552.98749813 -395.16542973 554.28093816 -397.015625 556.03125 C-399.67947414 559.06523568 -400.24382928 560.92579303 -400.0390625 564.953125 C-399.82441729 566.74139617 -399.57486548 568.52577756 -399.29296875 570.3046875 C-399.17888672 571.21863281 -399.06480469 572.13257813 -398.94726562 573.07421875 C-398.69960036 577.34326862 -398.69960036 577.34326862 -396.85546875 580.9296875 C-396.49827865 583.84724023 -396.19143807 586.754066 -395.91796875 589.6796875 C-395.38074332 595.1524191 -394.80738154 600.57303045 -393.85546875 605.9921875 C-392.52296889 614.01866306 -392.09723553 622.14753488 -391.55273438 630.25805664 C-391.47603516 631.36141357 -391.39933594 632.46477051 -391.3203125 633.6015625 C-391.25448975 634.6028418 -391.18866699 635.60412109 -391.12084961 636.63574219 C-391.10052872 638.89168102 -391.10052872 638.89168102 -389.85546875 639.9296875 C-389.63616634 642.44919041 -389.47615558 644.94788429 -389.35546875 647.47265625 C-389.31486328 648.23387283 -389.27425781 648.99508942 -389.23242188 649.77937317 C-389.10232574 652.22510237 -388.97836186 654.6710865 -388.85546875 657.1171875 C-388.73214292 659.54540564 -388.60739306 661.97351336 -388.47851562 664.40144348 C-388.39834212 665.91387335 -388.32135986 667.42647682 -388.24804688 668.93925476 C-388.08878295 671.96101267 -387.85936391 674.9065416 -387.35693359 677.89208984 C-386.70541261 681.83864489 -386.5104199 685.7455981 -386.33203125 689.73828125 C-386.27035263 691.0895536 -386.27035263 691.0895536 -386.20742798 692.46812439 C-385.60900217 706.63490504 -385.43269378 720.81533368 -385.23046875 734.9921875 C-385.21927254 735.75254807 -385.20807632 736.51290863 -385.19654083 737.29631042 C-384.88365524 758.59869173 -384.78766681 779.87733982 -385.23046875 801.1796875 C-385.25179871 802.22440216 -385.27312866 803.26911682 -385.29510498 804.3454895 C-385.50707586 814.22870573 -385.81223629 824.10440485 -386.33203125 833.9765625 C-386.36888031 834.69773254 -386.40572937 835.41890259 -386.44369507 836.16192627 C-386.6726344 840.15017449 -387.1895048 843.99521685 -387.85546875 847.9296875 C-388.05026905 850.28690641 -388.21492111 852.64673763 -388.35546875 855.0078125 C-388.43874828 856.34635751 -388.52208321 857.68489908 -388.60546875 859.0234375 C-388.73184236 861.11255123 -388.85677445 863.20174155 -388.98046875 865.29101562 C-389.10182618 867.32185634 -389.22839374 869.35232276 -389.35546875 871.3828125 C-389.42765625 872.59098633 -389.49984375 873.79916016 -389.57421875 875.04394531 C-389.85546875 877.9296875 -389.85546875 877.9296875 -390.85546875 879.9296875 C-391.12513368 882.04848337 -391.34429612 884.17379249 -391.5390625 886.30078125 C-391.66216797 887.59822266 -391.78527344 888.89566406 -391.91210938 890.23242188 C-392.10203413 892.28560327 -392.29038908 894.33892014 -392.4777832 896.39233398 C-393.1656716 903.87163974 -393.94730789 911.24907598 -395.41796875 918.61889648 C-395.8550558 920.92750637 -396.15538152 923.22037932 -396.41796875 925.5546875 C-396.85546875 928.9296875 -396.85546875 928.9296875 -397.85546875 929.9296875 C-398.12704913 931.24563646 -398.34547028 932.57268228 -398.5390625 933.90234375 C-398.7237207 935.12920898 -398.7237207 935.12920898 -398.91210938 936.38085938 C-399.03779297 937.24259766 -399.16347656 938.10433594 -399.29296875 938.9921875 C-400.07508065 944.35110236 -400.93443324 949.60598486 -402.31323242 954.84594727 C-402.93047415 957.217923 -403.48696416 959.60031652 -404.0390625 961.98828125 C-404.3474707 963.30989258 -404.3474707 963.30989258 -404.66210938 964.65820312 C-405.08161899 966.45962677 -405.49830114 968.26171127 -405.91210938 970.06445312 C-407.25984195 975.81225964 -408.87988626 981.36762651 -410.85546875 986.9296875 C-411.14945557 987.76201904 -411.44344238 988.59435059 -411.74633789 989.4519043 C-420.75843546 1014.74889725 -430.36811901 1038.19841574 -447.85546875 1058.9296875 C-448.62310547 1059.88101562 -448.62310547 1059.88101562 -449.40625 1060.8515625 C-455.22248223 1067.93764597 -462.28965171 1073.35585923 -469.60546875 1078.8046875 C-470.25572021 1079.29356445 -470.90597168 1079.78244141 -471.57592773 1080.28613281 C-472.19927002 1080.74342773 -472.8226123 1081.20072266 -473.46484375 1081.671875 C-474.02139648 1082.0829248 -474.57794922 1082.49397461 -475.15136719 1082.91748047 C-477.02983861 1084.0332602 -478.72260712 1084.50160085 -480.85546875 1084.9296875 C-480.85546875 1085.5896875 -480.85546875 1086.2496875 -480.85546875 1086.9296875 C-482.95880264 1088.13948831 -485.06311994 1089.34752707 -487.16796875 1090.5546875 C-487.74353516 1090.88597656 -488.31910156 1091.21726562 -488.91210938 1091.55859375 C-498.19643598 1096.87826197 -507.54845124 1101.87448216 -517.29296875 1106.3046875 C-518.32703857 1106.77656494 -519.3611084 1107.24844238 -520.42651367 1107.73461914 C-532.78742308 1113.32463279 -545.35402617 1118.42725397 -558.14453125 1122.953125 C-560.79214951 1123.90687797 -563.41422017 1124.9179833 -566.03857422 1125.93359375 C-583.58737955 1132.67600626 -601.67665132 1138.19945432 -619.8515625 1142.984375 C-620.52944824 1143.16323242 -621.20733398 1143.34208984 -621.90576172 1143.52636719 C-623.79527124 1144.02247233 -625.68663919 1144.51148392 -627.578125 1145 C-630.72912305 1145.82186784 -630.72912305 1145.82186784 -633.13671875 1146.890625 C-637.40506648 1148.52191882 -641.8437705 1149.41501202 -646.29296875 1150.4296875 C-653.14068644 1151.96254694 -653.14068644 1151.96254694 -659.8671875 1153.9375 C-664.24692287 1155.39168664 -668.72663213 1156.31373497 -673.23046875 1157.3046875 C-679.92341568 1158.79654879 -686.59181582 1160.33725849 -693.23046875 1162.0546875 C-699.86088967 1163.74466118 -706.49764287 1165.04654482 -713.234375 1166.21875 C-716.83298359 1166.87212576 -716.83298359 1166.87212576 -720.19921875 1167.88671875 C-724.69120679 1169.16808713 -729.2125397 1170.08847194 -733.79296875 1170.9921875 C-734.64826172 1171.16556641 -735.50355469 1171.33894531 -736.38476562 1171.51757812 C-740.2661816 1172.29030854 -744.11206456 1172.99258241 -748.046875 1173.42578125 C-751.82806831 1173.92606221 -755.19608333 1174.87183518 -758.85546875 1175.9296875 C-762.30006007 1176.63615782 -765.76322685 1177.22092778 -769.23046875 1177.8046875 C-770.22780029 1177.97540771 -771.22513184 1178.14612793 -772.25268555 1178.32202148 C-781.80310364 1179.94558513 -791.36921003 1181.47038603 -800.9375 1182.984375 C-806.94488524 1183.93755844 -812.94398378 1184.93766736 -818.93676758 1185.97875977 C-823.23553215 1186.71137731 -827.5264229 1187.23557345 -831.85986328 1187.69506836 C-834.04545472 1187.95202375 -836.1516378 1188.36211724 -838.29296875 1188.8671875 C-844.07271016 1190.09458108 -849.91358823 1190.65245775 -855.78686523 1191.23217773 C-859.95248527 1191.57264262 -859.95248527 1191.57264262 -863.85546875 1192.9296875 C-865.30624149 1193.12568426 -866.76372205 1193.27342281 -868.22265625 1193.39453125 C-869.54100464 1193.50958008 -869.54100464 1193.50958008 -870.88598633 1193.62695312 C-871.82466553 1193.70623047 -872.76334473 1193.78550781 -873.73046875 1193.8671875 C-882.23589927 1194.61532183 -882.23589927 1194.61532183 -890.66796875 1195.9296875 C-894.73776048 1196.63288678 -898.76187823 1197.14263294 -902.87890625 1197.46484375 C-903.97098389 1197.55314453 -905.06306152 1197.64144531 -906.18823242 1197.73242188 C-908.40675474 1197.90420761 -910.62567323 1198.07095875 -912.8449707 1198.23242188 C-913.86292725 1198.30912109 -914.88088379 1198.38582031 -915.9296875 1198.46484375 C-916.85354248 1198.5306665 -917.77739746 1198.59648926 -918.72924805 1198.66430664 C-920.83683449 1198.70635803 -920.83683449 1198.70635803 -921.85546875 1199.9296875 C-923.81672097 1200.14647531 -925.78489242 1200.30126732 -927.75390625 1200.4296875 C-929.55601562 1200.5534375 -929.55601562 1200.5534375 -931.39453125 1200.6796875 C-933.29332031 1200.8034375 -933.29332031 1200.8034375 -935.23046875 1200.9296875 C-937.71768462 1201.09278362 -940.20467986 1201.25929083 -942.69140625 1201.4296875 C-943.8004834 1201.501875 -944.90956055 1201.5740625 -946.05224609 1201.6484375 C-948.93442852 1201.83381784 -948.93442852 1201.83381784 -951.85546875 1202.9296875 C-953.36751119 1203.0934033 -954.88463855 1203.21238082 -956.40283203 1203.30273438 C-957.32033234 1203.35949341 -958.23783264 1203.41625244 -959.18313599 1203.47473145 C-960.66449539 1203.56071594 -960.66449539 1203.56071594 -962.17578125 1203.6484375 C-964.25781299 1203.77733591 -966.33984422 1203.9062424 -968.421875 1204.03515625 C-971.71167755 1204.23383607 -975.00157009 1204.43094779 -978.29150391 1204.62744141 C-981.46150819 1204.81814326 -984.63113839 1205.01433433 -987.80078125 1205.2109375 C-989.28821335 1205.296922 -989.28821335 1205.296922 -990.80569458 1205.38464355 C-991.71689056 1205.44140259 -992.62808655 1205.49816162 -993.56689453 1205.55664062 C-994.37281036 1205.60469849 -995.1787262 1205.65275635 -996.00906372 1205.70227051 C-997.87015804 1205.73925538 -997.87015804 1205.73925538 -998.85546875 1206.9296875 C-1001.94571933 1207.14973749 -1005.01865327 1207.30959125 -1008.11328125 1207.4296875 C-1009.04969452 1207.47029297 -1009.98610779 1207.51089844 -1010.95089722 1207.55273438 C-1013.96058284 1207.68288159 -1016.9704773 1207.80683071 -1019.98046875 1207.9296875 C-1022.96901294 1208.05296615 -1025.95746546 1208.1776834 -1028.94577026 1208.30664062 C-1030.80770675 1208.38688741 -1032.6697878 1208.46386633 -1034.53201294 1208.53710938 C-1038.1778133 1208.69337448 -1041.71959357 1208.91023046 -1045.33520508 1209.42797852 C-1049.96392979 1210.08766568 -1054.56559254 1210.27323585 -1059.234375 1210.45703125 C-1060.23916397 1210.49835678 -1061.24395294 1210.53968231 -1062.27919006 1210.58226013 C-1073.78050352 1211.03533931 -1085.28496069 1211.28547849 -1096.79296875 1211.4921875 C-1097.92931763 1211.51303406 -1099.0656665 1211.53388062 -1100.2364502 1211.55535889 C-1133.17945879 1212.14797416 -1166.10106342 1212.14748006 -1199.04296875 1211.4921875 C-1200.04501343 1211.47263 -1201.04705811 1211.45307251 -1202.07946777 1211.43292236 C-1212.50597844 1211.22308091 -1222.92550593 1210.9275829 -1233.34375 1210.45703125 C-1234.19889694 1210.41993546 -1235.05404388 1210.38283966 -1235.93510437 1210.34461975 C-1240.63521925 1210.11720667 -1245.19473711 1209.60290429 -1249.85546875 1208.9296875 C-1252.75514153 1208.70173805 -1255.6571589 1208.56397943 -1258.5625 1208.4296875 C-1260.21679959 1208.34640813 -1261.87109639 1208.26307321 -1263.52539062 1208.1796875 C-1266.11053044 1208.05328204 -1268.69573383 1207.9283593 -1271.28100586 1207.8046875 C-1273.79170509 1207.68342743 -1276.30209225 1207.55681831 -1278.8125 1207.4296875 C-1279.97807182 1207.37651367 -1279.97807182 1207.37651367 -1281.16719055 1207.32226562 C-1286.6292553 1207.04279422 -1286.6292553 1207.04279422 -1288.85546875 1205.9296875 C-1291.51291473 1205.64515401 -1294.15623449 1205.40985439 -1296.8203125 1205.2109375 C-1297.6094252 1205.14813599 -1298.3985379 1205.08533447 -1299.21156311 1205.02062988 C-1301.73840626 1204.81970496 -1304.26561807 1204.62411756 -1306.79296875 1204.4296875 C-1310.11494038 1204.17359185 -1313.43646164 1203.91244703 -1316.7578125 1203.6484375 C-1317.52351059 1203.5911145 -1318.28920868 1203.5337915 -1319.07810974 1203.47473145 C-1322.18624122 1203.22767478 -1324.88426238 1202.92008962 -1327.85546875 1201.9296875 C-1329.27849078 1201.74105031 -1330.70671334 1201.58998454 -1332.13671875 1201.46484375 C-1332.97299805 1201.38814453 -1333.80927734 1201.31144531 -1334.67089844 1201.23242188 C-1335.55680664 1201.15314453 -1336.44271484 1201.07386719 -1337.35546875 1200.9921875 C-1343.67082221 1200.39669511 -1349.86290719 1199.68409361 -1356.0859375 1198.4296875 C-1360.94633469 1197.552211 -1365.86003129 1197.0499809 -1370.765625 1196.4921875 C-1374.63236008 1196.00539572 -1378.42256345 1195.24764781 -1382.23803711 1194.46044922 C-1386.67956881 1193.55979724 -1391.14412564 1192.78760243 -1395.60546875 1191.9921875 C-1404.0627199 1190.46671742 -1412.46436711 1188.78680441 -1420.85546875 1186.9296875 C-1422.77319608 1186.51970246 -1424.69118926 1186.11095994 -1426.609375 1185.703125 C-1428.69141858 1185.25787017 -1430.77344977 1184.81255739 -1432.85546875 1184.3671875 C-1433.84796631 1184.15715088 -1434.84046387 1183.94711426 -1435.86303711 1183.73071289 C-1440.64815094 1182.70035505 -1445.22008461 1181.51385468 -1449.85546875 1179.9296875 C-1453.17695883 1179.04805293 -1456.51595825 1178.2400099 -1459.85546875 1177.4296875 C-1461.60603193 1177.00491849 -1463.3560483 1176.57788861 -1465.10546875 1176.1484375 C-1465.87375 1175.96216797 -1466.64203125 1175.77589844 -1467.43359375 1175.58398438 C-1470.28488278 1174.81367645 -1473.05955469 1173.88109501 -1475.85546875 1172.9296875 C-1477.79668884 1172.28979954 -1479.73810198 1171.65049703 -1481.6796875 1171.01171875 C-1509.11976781 1161.95470534 -1536.15834532 1152.25952338 -1561.85546875 1138.9296875 C-1563.79219559 1137.99059131 -1565.72966018 1137.05301461 -1567.66796875 1136.1171875 C-1573.25143106 1133.32158432 -1578.68282696 1130.27254981 -1584.10546875 1127.1796875 C-1585.39481323 1126.4530188 -1585.39481323 1126.4530188 -1586.71020508 1125.71166992 C-1587.50579834 1125.25252197 -1588.3013916 1124.79337402 -1589.12109375 1124.3203125 C-1589.84071289 1123.90813477 -1590.56033203 1123.49595703 -1591.30175781 1123.07128906 C-1592.07084473 1122.50619629 -1592.07084473 1122.50619629 -1592.85546875 1121.9296875 C-1592.85546875 1121.2696875 -1592.85546875 1120.6096875 -1592.85546875 1119.9296875 C-1593.37882812 1119.8575 -1593.9021875 1119.7853125 -1594.44140625 1119.7109375 C-1597.88851298 1118.59536898 -1600.58217267 1116.54100042 -1603.48046875 1114.4296875 C-1604.09857422 1113.98407471 -1604.71667969 1113.53846191 -1605.35351562 1113.0793457 C-1610.0836846 1109.61566109 -1614.47360904 1105.87664983 -1618.7578125 1101.87109375 C-1620.95308291 1099.78287884 -1620.95308291 1099.78287884 -1623.91796875 1097.5546875 C-1628.46750612 1093.48914347 -1632.0602528 1088.69095841 -1635.85546875 1083.9296875 C-1637.39588374 1082.07448083 -1638.93752772 1080.22029384 -1640.48046875 1078.3671875 C-1646.77975336 1070.65221 -1652.1816471 1062.71706195 -1656.85546875 1053.9296875 C-1657.31566406 1053.09953125 -1657.77585937 1052.269375 -1658.25 1051.4140625 C-1668.31021652 1033.25789337 -1676.48982905 1014.77014888 -1683.11816406 995.11083984 C-1683.72564687 993.31373674 -1684.3472474 991.52141227 -1684.97265625 989.73046875 C-1687.18646358 983.31774588 -1689.09550267 976.82005204 -1690.98046875 970.3046875 C-1691.23449463 969.43336182 -1691.48852051 968.56203613 -1691.75024414 967.66430664 C-1693.21072656 962.54657914 -1694.39112699 957.44451821 -1695.38647461 952.21728516 C-1696.03179685 949.06961759 -1696.96980208 946.01745925 -1697.85546875 942.9296875 C-1698.60069861 939.60752754 -1699.2622671 936.27052479 -1699.91796875 932.9296875 C-1700.17803711 931.63417969 -1700.17803711 931.63417969 -1700.44335938 930.3125 C-1701.19846718 926.50513649 -1701.91030588 922.71655585 -1702.4140625 918.8671875 C-1702.54041924 916.04667638 -1702.54041924 916.04667638 -1703.85546875 914.9296875 C-1704.21060239 912.44972062 -1704.5175029 909.98117826 -1704.79296875 907.4921875 C-1705.31833852 902.98753673 -1705.85470978 898.54574295 -1706.85546875 894.1171875 C-1708.13462678 888.26529131 -1708.60308467 882.30797124 -1709.15820312 876.35229492 C-1709.23490234 875.55283447 -1709.31160156 874.75337402 -1709.390625 873.9296875 C-1709.45644775 873.2078125 -1709.52227051 872.4859375 -1709.59008789 871.7421875 C-1709.77292331 869.83401349 -1709.77292331 869.83401349 -1710.85546875 867.9296875 C-1711.05389959 866.2219409 -1711.20039849 864.50801798 -1711.3203125 862.79296875 C-1711.43729492 861.21225586 -1711.43729492 861.21225586 -1711.55664062 859.59960938 C-1711.71061659 857.41213259 -1711.86427813 855.22463364 -1712.01757812 853.03710938 C-1712.44190612 847.3069566 -1713.01504474 841.65753274 -1713.85546875 835.97265625 C-1715.23652414 825.99965144 -1715.52703411 815.9815626 -1715.91796875 805.9296875 C-1716.03420271 803.03519608 -1716.15247288 800.14082401 -1716.27476501 797.24658203 C-1716.34980766 795.4625575 -1716.42129483 793.6783784 -1716.48854065 791.89404297 C-1716.68334485 787.17401486 -1717.15349321 782.60707977 -1717.85546875 777.9296875 C-1718.17548916 773.41477404 -1718.28910907 768.89114438 -1718.41796875 764.3671875 C-1718.43881531 763.65615875 -1718.45966187 762.94513 -1718.48114014 762.21255493 C-1719.52217396 724.90951234 -1719.41997332 687.41934886 -1718.41796875 650.1171875 C-1718.39841125 649.36762787 -1718.37885376 648.61806824 -1718.35870361 647.84579468 C-1718.04436368 636.35332643 -1718.04436368 636.35332643 -1717.36474609 630.73095703 C-1716.73459565 625.28896331 -1716.56260477 619.8516795 -1716.390625 614.37890625 C-1716.31201504 612.12955148 -1716.23323331 609.88020271 -1716.15429688 607.63085938 C-1716.03568504 604.14094373 -1715.91906456 600.65098559 -1715.8059082 597.16088867 C-1715.40835266 585.05053606 -1714.90837699 573.01899803 -1713.5897522 560.97055054 C-1712.67478721 552.57678809 -1712.22096957 544.17259151 -1711.79296875 535.7421875 C-1711.64073087 532.74838689 -1711.48245705 529.75499728 -1711.3203125 526.76171875 C-1711.25448975 525.46983643 -1711.18866699 524.1779541 -1711.12084961 522.84692383 C-1710.85546875 519.9296875 -1710.85546875 519.9296875 -1709.85546875 518.9296875 C-1709.57602411 516.31039538 -1709.35531404 513.70856257 -1709.171875 511.08203125 C-1709.11144516 510.27794327 -1709.05101532 509.47385529 -1708.98875427 508.645401 C-1708.7941538 506.0529637 -1708.60543212 503.46015005 -1708.41796875 500.8671875 C-1707.62609727 489.94103479 -1706.73047994 479.07712039 -1705.2746582 468.21704102 C-1704.92191067 465.45073612 -1704.66173311 462.71123227 -1704.48046875 459.9296875 C-1703.45232112 449.25138227 -1700.15835293 438.70488083 -1695.85546875 428.9296875 C-1695.41332031 427.84171875 -1694.97117187 426.75375 -1694.515625 425.6328125 C-1691.27434835 417.75745598 -1687.81081362 409.90293053 -1682.85546875 402.9296875 C-1682.19546875 402.9296875 -1681.53546875 402.9296875 -1680.85546875 402.9296875 C-1680.59765625 402.21425781 -1680.33984375 401.49882812 -1680.07421875 400.76171875 C-1678.7816211 397.75808639 -1677.22769785 395.29463378 -1675.35546875 392.6171875 C-1674.74703125 391.73417969 -1674.13859375 390.85117187 -1673.51171875 389.94140625 C-1672.691875 388.94560547 -1672.691875 388.94560547 -1671.85546875 387.9296875 C-1671.19546875 387.9296875 -1670.53546875 387.9296875 -1669.85546875 387.9296875 C-1669.63036621 387.21635254 -1669.40526367 386.50301758 -1669.17333984 385.76806641 C-1667.55477188 382.28205841 -1665.4997999 380.21838704 -1662.76953125 377.515625 C-1662.27133881 377.01930573 -1661.77314636 376.52298645 -1661.25985718 376.0116272 C-1660.20929093 374.96775808 -1659.15514543 373.92748024 -1658.09765625 372.890625 C-1656.4856676 371.30978589 -1654.88458778 369.7185332 -1653.28515625 368.125 C-1641.98880422 356.9296875 -1641.98880422 356.9296875 -1638.85546875 356.9296875 C-1638.52546875 355.9396875 -1638.19546875 354.9496875 -1637.85546875 353.9296875 C-1635.79296875 353.2421875 -1635.79296875 353.2421875 -1633.85546875 352.9296875 C-1633.85546875 352.2696875 -1633.85546875 351.6096875 -1633.85546875 350.9296875 C-1631.26756183 348.65707342 -1628.36682995 346.7724873 -1625.54296875 344.8046875 C-1624.75728516 344.24136719 -1623.97160156 343.67804688 -1623.16210938 343.09765625 C-1622.40478516 342.56527344 -1621.64746094 342.03289062 -1620.8671875 341.484375 C-1620.17069092 340.99437012 -1619.47419434 340.50436523 -1618.7565918 339.99951172 C-1616.85546875 338.9296875 -1616.85546875 338.9296875 -1613.85546875 338.9296875 C-1613.85546875 338.2696875 -1613.85546875 337.6096875 -1613.85546875 336.9296875 C-1612.2109375 335.640625 -1612.2109375 335.640625 -1610.04296875 334.3046875 C-1609.33527344 333.85867188 -1608.62757813 333.41265625 -1607.8984375 332.953125 C-1605.85546875 331.9296875 -1605.85546875 331.9296875 -1602.85546875 331.9296875 C-1602.85546875 331.2696875 -1602.85546875 330.6096875 -1602.85546875 329.9296875 C-1602.18644531 329.60097656 -1601.51742187 329.27226562 -1600.828125 328.93359375 C-1596.18501806 326.63385353 -1591.5581786 324.32923934 -1587.01171875 321.84375 C-1576.64454107 316.19041019 -1566.05210772 311.40161387 -1555.14501953 306.8828125 C-1553.21779339 306.08052087 -1551.29922604 305.25747468 -1549.3828125 304.4296875 C-1542.79078039 301.59058888 -1536.073633 299.2685141 -1529.25390625 297.05078125 C-1526.71312786 296.21261642 -1524.22089999 295.33919126 -1521.73046875 294.3671875 C-1517.20575785 292.61696966 -1512.55285272 291.28016487 -1507.90625 289.89453125 C-1504.90121863 288.98776856 -1504.90121863 288.98776856 -1502.23828125 287.87109375 C-1499.95524514 286.96910735 -1497.82052304 286.40934183 -1495.41796875 285.9296875 C-1491.77990399 285.20077292 -1488.37186351 284.11203692 -1484.85546875 282.9296875 C-1474.64001687 279.99336196 -1464.31678277 277.64392093 -1453.93457031 275.38671875 C-1450.98566799 274.73848658 -1448.04561023 274.05393587 -1445.10546875 273.3671875 C-1430.75605734 270.05578487 -1416.37309947 267.38604932 -1401.85546875 264.9296875 C-1400.26300922 264.65762005 -1398.67056046 264.38548956 -1397.078125 264.11328125 C-1392.67388212 263.36461781 -1388.26558738 262.64282122 -1383.85546875 261.9296875 C-1382.68733643 261.73826172 -1382.68733643 261.73826172 -1381.49560547 261.54296875 C-1370.63457295 259.77616499 -1359.80898149 258.44336168 -1348.83691406 257.57592773 C-1347.95358398 257.50446533 -1347.07025391 257.43300293 -1346.16015625 257.359375 C-1345.37624512 257.29991699 -1344.59233398 257.24045898 -1343.78466797 257.17919922 C-1341.77585251 257.02687726 -1341.77585251 257.02687726 -1339.85546875 255.9296875 C-1337.70558794 255.6581451 -1335.54891159 255.43979914 -1333.390625 255.24609375 C-1332.73431091 255.18629837 -1332.07799683 255.12650299 -1331.40179443 255.06489563 C-1329.24089275 254.86952726 -1327.0794945 254.68051717 -1324.91796875 254.4921875 C-1323.41560358 254.35894466 -1321.9132436 254.22564333 -1320.41088867 254.09228516 C-1301.87695022 252.45944395 -1283.33970624 250.92414798 -1264.74145508 250.27099609 C-1263.48691528 250.22386475 -1263.48691528 250.22386475 -1262.20703125 250.17578125 C-1261.48338379 250.15185303 -1260.75973633 250.1279248 -1260.01416016 250.10327148 C-1257.81205578 249.97223124 -1257.81205578 249.97223124 -1255.51951599 249.43737793 C-1252.99689871 248.95663996 -1250.63464844 248.73846944 -1248.07202148 248.63305664 C-1247.1588063 248.59401718 -1246.24559113 248.55497772 -1245.30470276 248.51475525 C-1243.84289833 248.45911156 -1243.84289833 248.45911156 -1242.3515625 248.40234375 C-1241.32743759 248.36101822 -1240.30331268 248.31969269 -1239.24815369 248.27711487 C-1229.14014055 247.88039653 -1219.03148931 247.57837067 -1208.91796875 247.3671875 C-1207.43185089 247.33591766 -1207.43185089 247.33591766 -1205.91571045 247.30401611 C-1161.27621536 246.40555996 -1116.55669158 246.46586133 -1071.91796875 247.3671875 C-1070.94224915 247.386745 -1069.96652954 247.40630249 -1068.96124268 247.42645264 C-1058.08809953 247.65369168 -1047.21951624 247.99819641 -1036.3515625 248.40234375 C-1035.29445572 248.43943954 -1034.23734894 248.47653534 -1033.14820862 248.51475525 C-1028.28439426 248.70568283 -1023.6552934 249.09962421 -1018.85546875 249.9296875 C-1015.72694891 250.16117279 -1012.59552068 250.27624544 -1009.4609375 250.39453125 C-1007.59830143 250.47316854 -1005.73567142 250.55194943 -1003.87304688 250.63085938 C-1000.97542756 250.74933311 -998.07775319 250.86582602 -995.17993164 250.97924805 C-985.01951353 251.38216871 -974.95311127 251.90015564 -964.86380005 253.19540405 C-957.73212427 254.10635286 -950.59479297 254.56030117 -943.41796875 254.9921875 C-940.87736395 255.14581728 -938.33698024 255.30316425 -935.796875 255.46484375 C-934.70060791 255.5306665 -933.60434082 255.59648926 -932.47485352 255.66430664 C-929.85546875 255.9296875 -929.85546875 255.9296875 -927.85546875 256.9296875 C-925.62587208 257.20033967 -923.3898952 257.41907155 -921.15234375 257.61328125 C-920.47810364 257.67371109 -919.80386353 257.73414093 -919.10919189 257.79640198 C-916.94160449 257.990508 -914.77361547 258.17943891 -912.60546875 258.3671875 C-903.30471506 259.17349425 -894.07530039 260.09101566 -884.84179688 261.4921875 C-882.09887766 261.89402786 -879.36312104 262.21271047 -876.60546875 262.4921875 C-872.85546875 262.9296875 -872.85546875 262.9296875 -870.85546875 263.9296875 C-869.1018414 264.19651608 -867.34102976 264.41688064 -865.578125 264.61328125 C-864.50626953 264.73638672 -863.43441406 264.85949219 -862.33007812 264.98632812 C-860.64108398 265.17485352 -860.64108398 265.17485352 -858.91796875 265.3671875 C-850.82527394 266.27062478 -842.85223056 267.39310482 -834.85546875 268.9296875 C-832.3558146 269.36915922 -829.85583076 269.80676121 -827.35546875 270.2421875 C-819.49500222 271.62421707 -811.64288113 273.05152133 -803.79296875 274.4921875 C-802.63925781 274.70206299 -801.48554687 274.91193848 -800.296875 275.12817383 C-795.14054167 276.07883523 -790.04370247 277.08592242 -784.97192383 278.41381836 C-778.99743086 279.87005364 -772.9163084 280.91317987 -766.87890625 282.07421875 C-761.71989842 283.08493783 -756.83168179 284.22203262 -751.85546875 285.9296875 C-748.20273762 286.82568226 -744.5294061 287.62570917 -740.85546875 288.4296875 C-735.07895995 289.69377762 -729.4463288 290.97919196 -723.85546875 292.9296875 C-721.61144434 293.46029426 -719.36257232 293.9157916 -717.1015625 294.3671875 C-714.85546875 294.9296875 -714.85546875 294.9296875 -712.63671875 295.8359375 C-708.80986487 297.34088004 -704.88530463 298.36093579 -700.91796875 299.4296875 C-695.84413751 300.80324313 -690.83421968 302.23677888 -685.85546875 303.9296875 C-683.95386988 304.51448883 -682.05221471 305.09912044 -680.14916992 305.67919922 C-674.24168811 307.48722316 -668.45271773 309.38395876 -662.74609375 311.76171875 C-658.62712349 313.42600538 -654.4613668 314.95665181 -650.29296875 316.4921875 C-649.50108154 316.78528809 -648.70919434 317.07838867 -647.89331055 317.38037109 C-642.58024865 319.33413211 -637.23582032 321.1699394 -631.85546875 322.9296875 C-631.85546875 323.5896875 -631.85546875 324.2496875 -631.85546875 324.9296875 C-630.82808594 325.03796875 -629.80070312 325.14625 -628.7421875 325.2578125 C-624.89957944 325.92206233 -622.14972912 326.96749102 -618.66796875 328.6796875 C-614.4977121 330.68407054 -610.33805409 332.58431272 -606.04296875 334.3046875 C-599.08264222 337.16421399 -592.42090934 340.56985822 -585.72167969 343.98486328 C-583.15424528 345.28470252 -580.56571107 346.54071168 -577.98046875 347.8046875 C-572.85127204 350.36229785 -567.854567 353.12953021 -562.85546875 355.9296875 C-551.82916625 363.19605495 -551.82916625 363.19605495 -539.85546875 366.9296875 C-539.39172852 366.11814209 -538.92798828 365.30659668 -538.45019531 364.47045898 C-529.15283203 348.20007324 -529.15283203 348.20007324 -519.85546875 331.9296875 C-519.19546875 331.9296875 -518.53546875 331.9296875 -517.85546875 331.9296875 C-517.7471875 331.19234375 -517.63890625 330.455 -517.52734375 329.6953125 C-516.81535014 326.76454809 -515.85365423 325.11272915 -514.10546875 322.6796875 C-511.54366705 319.09316512 -509.41821671 315.37857327 -507.30126953 311.52148438 C-499.79072583 298.05780117 -491.71193672 284.84847069 -483.01171875 272.12109375 C-480.29049398 268.09348391 -477.74788422 263.96596016 -475.23046875 259.80859375 C-474.77671875 259.18855469 -474.32296875 258.56851562 -473.85546875 257.9296875 C-473.19546875 257.9296875 -472.53546875 257.9296875 -471.85546875 257.9296875 C-471.64535156 257.26582031 -471.43523437 256.60195313 -471.21875 255.91796875 C-469.36783236 251.86079972 -466.78118801 248.61779725 -464.04296875 245.1171875 C-463.46836914 244.37452637 -462.89376953 243.63186523 -462.30175781 242.86669922 C-456.7594199 235.7358796 -451.07357989 228.72392166 -445.33935547 221.74707031 C-443.91561864 220.00335577 -442.50944418 218.24712195 -441.109375 216.484375 C-440.30371094 215.47632813 -439.49804688 214.46828125 -438.66796875 213.4296875 C-437.97316406 212.553125 -437.27835938 211.6765625 -436.5625 210.7734375 C-435.99917969 210.165 -435.43585938 209.5565625 -434.85546875 208.9296875 C-434.19546875 208.9296875 -433.53546875 208.9296875 -432.85546875 208.9296875 C-432.45328125 208.05570312 -432.45328125 208.05570312 -432.04296875 207.1640625 C-430.84065884 204.90182149 -429.51720962 203.12392432 -427.85546875 201.1796875 C-427.33984375 200.56609375 -426.82421875 199.9525 -426.29296875 199.3203125 C-424.85546875 197.9296875 -424.85546875 197.9296875 -422.85546875 197.9296875 C-422.63632813 197.38602539 -422.4171875 196.84236328 -422.19140625 196.28222656 C-420.4144196 193.15301543 -418.014419 190.80283351 -415.48046875 188.2890625 C-414.95533691 187.76201721 -414.43020508 187.23497192 -413.88916016 186.69195557 C-412.78207992 185.58351822 -411.67248545 184.47758704 -410.56054688 183.37402344 C-408.854399 181.67862449 -407.15922828 179.9727714 -405.46484375 178.265625 C-404.38735983 177.18946192 -403.30925608 176.11391899 -402.23046875 175.0390625 C-401.46790771 174.27042877 -401.46790771 174.27042877 -400.68994141 173.48626709 C-397.08540966 169.9296875 -397.08540966 169.9296875 -394.85546875 169.9296875 C-394.19546875 168.6096875 -393.53546875 167.2896875 -392.85546875 165.9296875 C-392.19546875 165.9296875 -391.53546875 165.9296875 -390.85546875 165.9296875 C-390.52546875 164.9396875 -390.19546875 163.9496875 -389.85546875 162.9296875 C-386.41102431 159.9296875 -386.41102431 159.9296875 -383.85546875 159.9296875 C-383.52546875 158.9396875 -383.19546875 157.9496875 -382.85546875 156.9296875 C-381.20278104 155.42854382 -379.48340189 153.99995083 -377.73046875 152.6171875 C-374.35318316 149.92941275 -371.02048721 147.23306013 -367.79296875 144.3671875 C-364.85546875 141.9296875 -364.85546875 141.9296875 -362.85546875 141.9296875 C-362.52546875 140.9396875 -362.19546875 139.9496875 -361.85546875 138.9296875 C-359.79296875 138.2421875 -359.79296875 138.2421875 -357.85546875 137.9296875 C-357.85546875 137.2696875 -357.85546875 136.6096875 -357.85546875 135.9296875 C-356.39453125 134.640625 -356.39453125 134.640625 -354.48046875 133.3046875 C-353.54074219 132.63566406 -353.54074219 132.63566406 -352.58203125 131.953125 C-350.85546875 130.9296875 -350.85546875 130.9296875 -348.85546875 130.9296875 C-348.85546875 130.2696875 -348.85546875 129.6096875 -348.85546875 128.9296875 C-347.53546875 128.5996875 -346.21546875 128.2696875 -344.85546875 127.9296875 C-344.85546875 127.2696875 -344.85546875 126.6096875 -344.85546875 125.9296875 C-342.92654562 124.44520277 -341.00536814 123.08436327 -338.98046875 121.7421875 C-337.76666755 120.92225907 -336.55312768 120.10194366 -335.33984375 119.28125 C-334.43975586 118.67651855 -334.43975586 118.67651855 -333.52148438 118.05957031 C-331.39585354 116.61797895 -329.31484493 115.11764269 -327.23046875 113.6171875 C-319.31674126 108.07114433 -311.06199721 103.02684795 -302.85546875 97.9296875 C-302.10313965 97.46079102 -301.35081055 96.99189453 -300.57568359 96.50878906 C-298.50736206 95.22391563 -296.43301789 93.94957298 -294.35546875 92.6796875 C-293.43084839 92.10565186 -293.43084839 92.10565186 -292.48754883 91.52001953 C-289.70575148 89.83811235 -288.17056044 88.9296875 -284.85546875 88.9296875 C-284.85546875 88.2696875 -284.85546875 87.6096875 -284.85546875 86.9296875 C-276.53057321 82.58002916 -268.19670897 78.24791726 -259.85546875 73.9296875 C-259.0262793 73.49930176 -258.19708984 73.06891602 -257.34277344 72.62548828 C-249.7185544 68.6803387 -242.08467621 65.09837563 -234.07348633 62.00610352 C-230.57760836 60.65054006 -227.23571222 59.1744107 -223.91796875 57.4296875 C-219.03580803 54.89096393 -213.97323625 53.04356127 -208.81323242 51.16235352 C-204.86766623 49.71445212 -201.03610234 48.16038856 -197.23046875 46.3671875 C-192.02558359 43.92104778 -186.67799275 42.06352304 -181.25 40.17578125 C-178.25687448 39.07703897 -175.42052158 37.85891593 -172.54296875 36.4921875 C-167.20261209 33.97628614 -161.71964695 32.04215213 -156.1315918 30.16040039 C-151.71935503 28.65766317 -147.49681728 26.91476666 -143.25292969 24.98950195 C-138.82511367 23.03215477 -134.30528608 21.30608682 -129.79296875 19.5546875 C-128.78435791 19.1618457 -127.77574707 18.76900391 -126.73657227 18.36425781 C-114.92919874 13.77620687 -103.08157412 9.32385821 -91.13671875 5.10546875 C-88.7780679 4.26028553 -86.43515588 3.39404697 -84.09375 2.50390625 C-56.95442265 -7.71145854 -25.97237461 -18.83085984 0 0 Z " fill="#1F1C1D" transform="translate(1954.85546875,63.0703125)"/>
<path d="M0 0 C3.87341181 0.00538654 7.74670872 -0.00000101 11.62011719 -0.00634766 C32.5671046 -0.01359272 53.33768806 0.63168535 74.17480469 2.81787109 C74.99624969 2.90307007 75.8176947 2.98826904 76.66403198 3.0760498 C116.11572569 7.2164117 155.28287327 14.80550001 193.53564453 25.2890625 C196.5742351 26.11996101 199.61800239 26.92910708 202.66308594 27.73583984 C242.92203859 38.54509288 283.72755927 52.67817918 320.64453125 72.1015625 C322.79887948 73.22791777 324.96650711 74.32594599 327.13574219 75.42333984 C343.18093786 83.61074043 358.48970576 92.91838036 372.61230469 104.13037109 C373.53140625 104.84580078 374.45050781 105.56123047 375.39746094 106.29833984 C419.05166549 140.98838988 423.11173995 192.79893084 429.16137695 245.03833008 C431.44369279 265.03137353 433.14121513 285.06293882 434.61230469 305.13037109 C434.66322266 305.82062378 434.71414063 306.51087646 434.76660156 307.2220459 C435.10151251 311.77406198 435.42337275 316.32686307 435.73730469 320.88037109 C435.81287598 321.95915527 435.88844727 323.03793945 435.96630859 324.14941406 C436.20777561 327.80848415 436.41491827 331.4687345 436.61230469 335.13037109 C436.67745773 336.26587402 436.67745773 336.26587402 436.743927 337.42431641 C437.92403329 358.67092184 437.79973923 379.94746859 437.79760742 401.21923828 C437.79752633 405.47904725 437.8044563 409.73874828 437.81811523 413.99853516 C437.8974015 439.12797267 437.58153838 464.07181927 435.61230469 489.13037109 C435.47909056 490.9397193 435.34659986 492.74912103 435.21508789 494.55859375 C434.90110644 498.7733267 434.5473555 502.98289033 434.17480469 507.19287109 C434.07951477 508.27219406 434.07951477 508.27219406 433.9822998 509.37332153 C433.54523646 514.29430371 433.08551126 519.21273414 432.61230469 524.13037109 C432.50837402 525.21543945 432.40444336 526.30050781 432.29736328 527.41845703 C429.57598044 554.65010137 424.26311834 582.15729611 415.61230469 608.13037109 C415.24371338 609.25644775 415.24371338 609.25644775 414.86767578 610.40527344 C406.94018701 634.25294186 393.25740089 658.56046754 370.21386719 670.39599609 C294.89451183 706.6669221 191.208868 703.18531404 -189.82128906 663.32543945 C-206.5434655 657.43215642 -222.72564035 650.444536 -238.38769531 642.13037109 C-239.54269531 641.51806641 -240.69769531 640.90576172 -241.88769531 640.27490234 C-254.56630222 633.28726103 -266.7293708 625.08198313 -277.27050781 615.12646484 C-279.22687547 613.28199275 -281.24842917 611.58598827 -283.32519531 609.88037109 C-321.43849848 576.45438949 -326.86742927 519.43545553 -332.38769531 472.13037109 C-332.47041687 471.42757019 -332.55313843 470.72476929 -332.6383667 470.00067139 C-334.86858904 450.99472189 -336.66355979 431.96922249 -338.01269531 412.88037109 C-338.06918243 412.09586578 -338.12566956 411.31136047 -338.18386841 410.50308228 C-338.64240978 404.04864821 -339.02353407 397.59075542 -339.38769531 391.13037109 C-339.42741833 390.4392989 -339.46714134 389.7482267 -339.50806808 389.03621292 C-341.06846463 361.83211886 -341.75833096 334.6977827 -341.70555115 307.44995117 C-341.7000899 304.51114779 -341.69773758 301.57235249 -341.69567871 298.63354492 C-341.66342311 269.05817195 -341.25889006 239.59036366 -338.38769531 210.13037109 C-338.30801514 209.31185669 -338.22833496 208.49334229 -338.14624023 207.65002441 C-337.10398881 197.11268591 -335.83153007 186.62039772 -334.38769531 176.13037109 C-334.26426758 175.18226563 -334.14083984 174.23416016 -334.01367188 173.25732422 C-329.6057131 139.50130368 -319.62714881 107.60579724 -296.38769531 82.13037109 C-295.26175847 80.75613813 -294.13663972 79.38123408 -293.01269531 78.00537109 C-241.08096096 19.09959088 -144.50382157 8.40703427 -70.88769531 2.44287109 C-70.14709869 2.38193268 -69.40650208 2.32099426 -68.64346313 2.25820923 C-45.79206789 0.4055829 -22.91866817 -0.03780039 0 0 Z " fill="#1F1F1F" transform="translate(670.3876953125,447.86962890625)"/>
<path d="M0 0 C3.14063008 0.35232041 6.28247635 0.6935239 9.42407227 1.03710938 C11.65858284 1.28589473 13.89296859 1.53580506 16.12719727 1.78710938 C17.04291504 1.88967041 17.95863281 1.99223145 18.90209961 2.09790039 C71.70020983 8.24368721 125.32534449 17.52473763 176.39135742 32.46875 C179.54146281 33.38073114 182.69956079 34.26260813 185.85766602 35.14648438 C218.05254582 44.23031987 250.86209878 54.41757407 280.92114258 69.21289062 C283.44454196 70.43965822 285.98449532 71.62878044 288.52563477 72.81835938 C298.05150245 77.2943039 307.32950914 81.87079513 316.38110352 87.24414062 C321.78713677 90.31699436 327.54856226 92.71061987 333.25292969 95.16845703 C334.06995361 95.52343262 334.88697754 95.8784082 335.72875977 96.24414062 C336.45659668 96.55456299 337.18443359 96.86498535 337.93432617 97.18481445 C340.17466128 98.31133006 342.04181745 99.66773969 344.00219727 101.22460938 C343.43557335 104.7732807 342.54723829 107.40097951 340.70922852 110.48242188 C340.24323242 111.27390625 339.77723633 112.06539063 339.29711914 112.88085938 C338.80791992 113.69554687 338.3187207 114.51023437 337.81469727 115.34960938 C334.2849076 121.29553764 330.85448352 127.27320768 327.5625 133.35449219 C324.79717355 138.4412044 321.95836156 143.48683959 319.12719727 148.53710938 C318.55356445 149.56255859 317.97993164 150.58800781 317.38891602 151.64453125 C312.97133161 159.53026378 308.49664761 167.38255607 304.00219727 175.22460938 C301.45989977 179.66174858 298.91781309 184.099007 296.37719727 188.53710938 C296.03692505 189.13144775 295.69665283 189.72578613 295.34606934 190.33813477 C290.42567027 198.93643666 285.56831653 207.56733476 280.75219727 216.22460938 C275.98636107 224.78596345 271.05870173 233.22846372 265.98217773 241.60888672 C263.04652039 246.46053053 260.21553733 251.34169354 257.54516602 256.34570312 C254.19981741 262.58753077 250.72201497 268.75800811 247.27368164 274.94335938 C246.45385626 276.4142596 245.63478828 277.88558237 244.81665039 279.35742188 C239.4003633 289.09748003 233.79036837 298.7008101 228.00219727 308.22460938 C226.93743164 308.08023437 225.87266602 307.93585938 224.77563477 307.78710938 C205.89083419 305.32501636 189.88421925 305.2032059 173.00219727 315.22460938 C172.1037207 315.94777344 171.20524414 316.6709375 170.27954102 317.41601562 C168.00219727 319.22460938 168.00219727 319.22460938 166.00219727 319.22460938 C166.00219727 319.88460938 166.00219727 320.54460937 166.00219727 321.22460938 C164.57907227 322.36929688 164.57907227 322.36929688 163.12719727 323.53710938 C152.68896653 332.28835333 146.57955541 344.05960242 141.00219727 356.22460938 C140.61547852 357.03414062 140.22875977 357.84367187 139.83032227 358.67773438 C134.20798448 370.75193519 130.1431179 383.30561906 127.00219727 396.22460938 C126.74825195 397.22105469 126.49430664 398.2175 126.23266602 399.24414062 C114.56691272 446.84290941 108.09472005 502.54897706 122.00219727 550.22460938 C122.17976563 550.86930176 122.35733398 551.51399414 122.5402832 552.17822266 C133.19398004 590.83348097 156.91744879 622.67399955 191.43969727 643.16210938 C193.28695004 644.19540116 195.14020232 645.21812562 197.00219727 646.22460938 C197.63383789 646.58554687 198.26547852 646.94648437 198.91625977 647.31835938 C209.09669577 652.52919866 221.14766245 647.93316524 231.37719727 645.03710938 C233.65923862 644.40792323 235.94265003 643.78390676 238.22625732 643.16043091 C239.73142372 642.74937681 241.23618969 642.33685348 242.74053955 641.92282104 C248.63134422 640.30610982 254.54853906 638.84253527 260.50219727 637.47460938 C267.47541186 635.8599395 274.37432896 634.0760803 281.25244141 632.09423828 C285.20925988 630.96321576 289.16454303 629.94014708 293.18188477 629.04492188 C302.98081337 626.84338448 311.02535058 624.63997925 319.00219727 618.22460938 C319.51830566 617.82467773 320.03441406 617.42474609 320.56616211 617.01269531 C328.46870123 610.86756234 334.95647316 604.24848452 341.00219727 596.22460938 C341.51911133 595.58394531 342.03602539 594.94328125 342.56860352 594.28320312 C360.18372837 572.06030719 369.72545583 543.74350208 375.00219727 516.22460938 C375.21054199 515.1659668 375.21054199 515.1659668 375.4230957 514.0859375 C378.95602937 495.98069158 380.41304072 478.1021725 380.37719727 459.66210938 C380.37737854 458.21984482 380.37737854 458.21984482 380.37756348 456.7484436 C380.35045481 441.56175919 379.46078481 427.06796751 376.00219727 412.22460938 C375.84203125 411.49693359 375.68186523 410.76925781 375.5168457 410.01953125 C369.07481039 381.16030724 354.88295749 356.21261266 332.00219727 337.22460938 C331.34219727 336.89460938 330.68219727 336.56460937 330.00219727 336.22460938 C329.62999046 331.73710453 329.62999046 331.73710453 331.26464844 329.48632812 C331.85221924 328.96683594 332.43979004 328.44734375 333.04516602 327.91210938 C333.7006543 327.31785156 334.35614258 326.72359375 335.03149414 326.11132812 C336.09980469 325.17740234 336.09980469 325.17740234 337.18969727 324.22460938 C338.66415309 322.89326636 340.13678238 321.55989794 341.60766602 320.22460938 C342.71827393 319.22300781 342.71827393 319.22300781 343.85131836 318.20117188 C347.001799 315.30601964 350.00528272 312.27717193 353.00219727 309.22460938 C356.8916063 305.29050801 360.80198999 301.43532538 365.0619812 297.89924622 C367.01338917 296.26041904 367.01338917 296.26041904 368.73245239 294.46879578 C374.03932026 289.24548141 378.53390559 287.87781468 385.80688477 286.93164062 C386.83622635 286.77455124 387.86556793 286.61746185 388.92610168 286.45561218 C392.23981915 285.95611359 395.55765652 285.49614605 398.87719727 285.03710938 C401.15077319 284.70245868 403.42396871 284.36521339 405.69677734 284.02539062 C410.13701865 283.36507869 414.57892732 282.71906763 419.02319336 282.08642578 C423.96805582 281.37976667 428.90340644 280.62843207 433.83422852 279.83007812 C435.02999512 279.63760498 436.22576172 279.44513184 437.45776367 279.24682617 C439.53176321 278.91170871 441.60566527 278.5759871 443.67944336 278.23950195 C448.52185734 277.48682903 453.10109055 277.06369753 458.00219727 277.22460938 C459.37369392 286.55267255 460.70151293 295.88645733 462.00219727 305.22460938 C462.14061035 306.20606934 462.27902344 307.1875293 462.42163086 308.19873047 C464.56145877 323.63066588 465.8115691 339.13825228 467.06469727 354.66210938 C467.146875 355.67106262 467.22905273 356.68001587 467.3137207 357.71954346 C467.82550373 364.04939 468.30293809 370.38102527 468.75192261 376.71563721 C468.92206975 379.10118272 469.0969888 381.48639166 469.27615356 383.87127686 C471.08081269 408.24113344 471.34617617 432.55734778 471.31787109 456.98730469 C471.31325986 461.29079702 471.32010782 465.59400529 471.33837891 469.89746094 C471.51492041 511.92513213 469.42758493 553.53693071 464.00219727 595.22460938 C463.88408691 596.18254395 463.76597656 597.14047852 463.64428711 598.12744141 C458.76424748 637.5800506 449.40419114 686.69583196 422.00219727 717.22460938 C421.34219727 717.22460938 420.68219727 717.22460938 420.00219727 717.22460938 C419.67219727 718.21460938 419.34219727 719.20460938 419.00219727 720.22460938 C416.9567597 721.98864798 414.93473986 723.58333242 412.75219727 725.16210938 C412.09251953 725.64083496 411.4328418 726.11956055 410.75317383 726.61279297 C382.27030507 746.79415496 348.89178428 759.29264232 316.00219727 770.22460938 C315.15254395 770.50868652 314.30289062 770.79276367 313.42749023 771.08544922 C289.54366352 779.02207211 265.21421157 786.07751428 240.65795898 791.60253906 C237.27119209 792.39583581 233.9014252 793.25365989 230.52954102 794.10742188 C221.80560627 796.30759838 213.03758268 798.28664815 204.25219727 800.22460938 C203.46239471 800.39924713 202.67259216 800.57388489 201.8588562 800.7538147 C181.38384292 805.27733111 160.8789892 809.16681735 140.20385742 812.67822266 C136.30031989 813.34438988 132.40096115 814.03106042 128.50219727 814.72460938 C127.18450951 814.95649715 125.86680032 815.18826321 124.54907227 815.41992188 C122.05640097 815.85893306 119.56498437 816.3037977 117.07446289 816.75488281 C86.44615726 822.29600614 55.60172998 826.12260857 24.70141602 829.78369141 C21.26946462 830.1927532 17.83876397 830.61068086 14.40844727 831.03320312 C-16.96412671 834.88977985 -48.38698073 837.61827535 -79.90252686 839.98962402 C-82.79488356 840.20920428 -85.68667895 840.43491892 -88.57836914 840.66308594 C-174.52644087 847.39616852 -262.40750773 847.94484224 -370.99780273 840.22460938 C-372.00200256 840.13246155 -373.00620239 840.04031372 -374.04083252 839.94537354 C-403.38842393 837.2345877 -432.68245456 834.30938962 -461.74780273 829.34960938 C-463.30265268 829.08650529 -464.85750294 828.82340311 -466.41235352 828.56030273 C-470.24049973 827.91013496 -474.06722202 827.25203911 -477.89318848 826.58917236 C-479.85132727 826.24998197 -481.80980561 825.9127534 -483.76831055 825.57568359 C-501.67487959 822.46923735 -519.35677568 818.58935018 -536.99780273 814.22460938 C-538.09415039 813.95422852 -539.19049805 813.68384766 -540.32006836 813.40527344 C-553.77377503 810.04390391 -566.97287294 806.04585487 -580.12280273 801.66210938 C-581.13922348 801.32354919 -581.13922348 801.32354919 -582.17617798 800.97814941 C-596.01914397 796.34745884 -609.74602835 791.39459143 -623.12280273 785.53710938 C-624.08726318 785.11486084 -625.05172363 784.6926123 -626.04541016 784.25756836 C-651.12219924 773.15332723 -677.76685951 760.34902563 -696.99780273 740.22460938 C-696.99780273 739.56460938 -696.99780273 738.90460937 -696.99780273 738.22460938 C-697.98780273 737.89460938 -698.97780273 737.56460938 -699.99780273 737.22460938 C-701.46484375 735.63671875 -701.46484375 735.63671875 -703.00170898 733.56835938 C-703.85804932 732.41859619 -703.85804932 732.41859619 -704.73168945 731.24560547 C-705.63685303 729.9977124 -705.63685303 729.9977124 -706.56030273 728.72460938 C-707.18437012 727.86818848 -707.8084375 727.01176758 -708.45141602 726.12939453 C-744.02936921 676.61255647 -756.06945215 614.14701766 -763.54077148 554.83203125 C-763.95134965 551.59127112 -764.37912979 548.35330048 -764.81030273 545.11523438 C-766.61244789 531.10560497 -767.66711163 517.06280166 -768.62280273 502.97460938 C-768.68533234 502.069758 -768.74786194 501.16490662 -768.81228638 500.2326355 C-770.77876306 471.43353059 -771.20405236 442.6407972 -771.18530273 413.78710938 C-771.18518314 412.96599545 -771.18506355 412.14488152 -771.18494034 411.29888535 C-771.17930829 380.57161215 -770.57169635 349.91642738 -768.99780273 319.22460938 C-768.9445282 318.17670227 -768.89125366 317.12879517 -768.83636475 316.0491333 C-766.78216444 276.0455981 -763.28334841 236.22753769 -758.93530273 196.41210938 C-758.81142181 195.26416901 -758.68754089 194.11622864 -758.55990601 192.9335022 C-755.36485854 163.4907914 -750.32247161 137.94455985 -729.99780273 115.22460938 C-729.24370117 114.36222656 -728.48959961 113.49984375 -727.71264648 112.61132812 C-700.788941 82.17784285 -664.26477458 62.33816335 -626.99780273 47.22460938 C-625.87994385 46.76272217 -624.76208496 46.30083496 -623.61035156 45.82495117 C-614.42833103 42.05837925 -605.13583229 38.81038816 -595.68530273 35.78710938 C-594.95168518 35.55093903 -594.21806763 35.31476868 -593.46221924 35.07144165 C-580.74161728 30.98389097 -567.94833456 27.28763533 -554.99780273 23.9921875 C-552.05508175 23.23926475 -549.120074 22.46100103 -546.18530273 21.67773438 C-531.44953209 17.80185833 -516.57317255 14.94357806 -501.58821106 12.24401855 C-497.75145624 11.55099035 -493.92285866 10.82714998 -490.09936523 10.06445312 C-479.29376698 7.90912094 -468.49848759 6.26816302 -457.56030273 4.93554688 C-453.64572742 4.45412358 -449.755795 3.88136162 -445.86108398 3.25976562 C-437.99515315 2.0312572 -430.09756571 1.14997085 -422.18530273 0.28710938 C-421.40269073 0.20123566 -420.62007874 0.11536194 -419.81375122 0.02688599 C-403.55787901 -1.75325639 -387.29392521 -3.40676385 -370.99780273 -4.77539062 C-370.25449707 -4.83855469 -369.51119141 -4.90171875 -368.74536133 -4.96679688 C-265.58851323 -13.68857646 -159.84043763 -13.12231428 0 0 Z M-455.81030273 74.03710938 C-456.84441284 74.124534 -457.87852295 74.21195862 -458.94396973 74.30203247 C-475.72594376 75.73039873 -492.36912626 77.50941951 -508.99780273 80.22460938 C-510.13411133 80.40604492 -511.27041992 80.58748047 -512.44116211 80.77441406 C-574.09833051 90.74180829 -646.06164103 110.11296153 -684.76342773 163.47363281 C-688.12128138 168.23679071 -691.13206982 173.15305645 -693.99780273 178.22460938 C-694.59206055 179.25328125 -695.18631836 180.28195312 -695.79858398 181.34179688 C-724.89732153 235.15187917 -721.43023491 311.24541558 -721.31565857 370.82289124 C-721.31021221 373.77365243 -721.30784831 376.72440557 -721.30578613 379.6751709 C-721.25368873 427.62114062 -718.87728006 475.21912262 -714.21661377 522.94799805 C-713.90203372 526.22103453 -713.61345587 529.49631694 -713.32202148 532.77148438 C-706.47179785 607.03029547 -706.47179785 607.03029547 -671.99780273 671.22460938 C-671.57096191 671.71703125 -671.14412109 672.20945312 -670.7043457 672.71679688 C-664.36489312 680.02281316 -657.69884226 686.32479338 -649.99780273 692.22460938 C-649.09803711 692.94003906 -648.19827148 693.65546875 -647.27124023 694.39257812 C-633.94028697 704.76721806 -619.26852482 713.0739454 -603.99780273 720.22460938 C-602.9867749 720.70510742 -602.9867749 720.70510742 -601.95532227 721.1953125 C-588.65296994 727.48244731 -574.9223879 732.50012122 -560.99780273 737.22460938 C-559.49878418 737.73507812 -559.49878418 737.73507812 -557.96948242 738.25585938 C-480.58714023 764.22751405 -396.01120548 771.22854218 -9.99389648 741.83007812 C-3.01261743 738.30545462 2.44611238 733.68459845 8.00219727 728.22460938 C8.82397461 727.45963135 8.82397461 727.45963135 9.66235352 726.67919922 C14.11209331 722.4391013 17.38163117 718.00503826 20.50219727 712.72460938 C20.97431641 711.93344727 21.44643555 711.14228516 21.93286133 710.32714844 C47.96162809 666.04444134 52.04121649 610.99301738 56.18969727 560.78710938 C56.26148193 559.92174561 56.3332666 559.05638184 56.40722656 558.16479492 C57.74803781 540.61339602 58.16335874 523.04345596 58.17016602 505.44726562 C58.17339931 503.41979451 58.1767647 501.3923236 58.18025208 499.36485291 C58.18618165 495.1404466 58.18809872 490.91606055 58.1875 486.69165039 C58.1874193 482.45234865 58.19428261 478.21315627 58.20800781 473.97387695 C58.29504562 446.65144863 57.73050329 419.49313455 56.00219727 392.22460938 C55.87422103 390.07614638 55.74707528 387.92763361 55.62109375 385.77905273 C55.3195598 380.73783507 54.98413325 375.69968579 54.62719727 370.66210938 C54.56627899 369.79301941 54.50536072 368.92392944 54.44259644 368.02850342 C52.40942407 339.3102257 49.33521105 310.68923683 45.00219727 282.22460938 C44.81012695 280.96116699 44.61805664 279.69772461 44.42016602 278.39599609 C37.51196029 233.60965269 26.06763642 199.09283781 -11.44311523 171.45507812 C-29.68722761 158.34187586 -49.36819223 147.69987862 -69.72998047 138.29956055 C-72.10566838 137.1734809 -74.44263943 135.98481473 -76.78295898 134.78710938 C-82.54253832 131.89179224 -88.46011742 129.449163 -94.43530273 127.03710938 C-95.60762451 126.56297607 -96.77994629 126.08884277 -97.98779297 125.6003418 C-118.01862641 117.55459028 -138.16448995 110.25842643 -158.87182617 104.14941406 C-161.89999345 103.25354577 -164.92186904 102.33882163 -167.94311523 101.41992188 C-183.48180828 96.73580536 -199.17623608 92.82924461 -214.99780273 89.22460938 C-215.64082336 89.07787781 -216.28384399 88.93114624 -216.9463501 88.77996826 C-246.18432033 82.12691347 -275.60175345 77.0005755 -305.43530273 73.91210938 C-306.2115802 73.83070709 -306.98785767 73.74930481 -307.78765869 73.66543579 C-329.12249622 71.46294111 -350.42697161 71.05911331 -371.86401367 71.09423828 C-375.72896276 71.09958332 -379.5937947 71.09426519 -383.45874023 71.08789062 C-407.65857555 71.07931701 -431.69908287 71.96886779 -455.81030273 74.03710938 Z " fill="#ECEBEE" transform="translate(1049.997802734375,376.775390625)"/>
<path d="M0 0 C-0.57981794 4.21403399 -3.053887 7.22593999 -5.5 10.5625 C-5.9434375 11.17585205 -6.386875 11.7892041 -6.84375 12.42114258 C-10.4507026 17.36212967 -14.25367384 22.10750081 -18.1875 26.79296875 C-20.11735064 29.06835233 -20.11735064 29.06835233 -22 32 C-22.66 32 -23.32 32 -24 32 C-24.268125 32.804375 -24.53625 33.60875 -24.8125 34.4375 C-25.4003125 35.7059375 -25.4003125 35.7059375 -26 37 C-27.485 37.495 -27.485 37.495 -29 38 C-29.67908171 39.66164685 -30.34285199 41.32955733 -31 43 C-32.58322371 45.20382534 -34.17999339 47.32491887 -35.875 49.4375 C-39.11524624 53.51905646 -42.13171249 57.6409578 -45 62 C-46.625 63.875 -46.625 63.875 -48 65 C-48.66 65 -49.32 65 -50 65 C-50.13148438 65.83724609 -50.13148438 65.83724609 -50.265625 66.69140625 C-51.21452546 69.67438589 -52.76862177 71.52036754 -54.75 73.9375 C-55.42546875 74.77152344 -56.1009375 75.60554688 -56.796875 76.46484375 C-58.27739612 78.16849305 -59.82068975 79.81936392 -61.41796875 81.4140625 C-64.29909422 84.29954671 -66.93563263 87.3224215 -69.5625 90.4375 C-70.03107422 90.98470703 -70.49964844 91.53191406 -70.98242188 92.09570312 C-73.9292901 95.57836558 -76.49893286 99.17646595 -79 103 C-79.98165594 104.01801357 -80.97591432 105.0246803 -82 106 C-82.33 106.66 -82.66 107.32 -83 108 C-83.66 108 -84.32 108 -85 108 C-85.3403125 108.7734375 -85.3403125 108.7734375 -85.6875 109.5625 C-88.02599224 113.90541415 -90.77336901 117.8065212 -94.3125 121.25 C-96.8767336 123.87386694 -98.87461892 126.51728884 -101 129.5 C-103.75798026 133.36531192 -106.54294825 136.72981591 -110 140 C-110.78375 141.010625 -111.5675 142.02125 -112.375 143.0625 C-117.00365944 148.24219033 -123.32931946 150.71095953 -129.625 153.375 C-134.49922458 155.45386183 -139.32440141 157.61073426 -144.125 159.85546875 C-151.12320935 163.09910894 -158.23184567 166.0303968 -165.375 168.9375 C-174.37574082 172.62109809 -183.28881265 176.41013145 -192.05859375 180.6171875 C-195.52283646 182.24579562 -199.04347302 183.65557311 -202.609375 185.04296875 C-208.84667415 187.53992674 -214.90728011 190.41957501 -220.875 193.5 C-224.37798104 195.27049894 -227.88337643 196.7594508 -231.5625 198.125 C-238.32873117 200.65127418 -244.90166649 203.56595267 -251.5 206.5 C-259.10335675 209.88045062 -266.68958616 213.13127327 -274.4921875 216.0234375 C-277.41585493 217.16193728 -280.16022414 218.52222899 -282.93432617 219.98120117 C-285.1027055 221.05065477 -287.29093382 221.94494095 -289.54296875 222.82421875 C-295.11580775 225.02976183 -300.62172542 227.3770993 -306.125 229.75 C-307.08148437 230.16121094 -308.03796875 230.57242188 -309.0234375 230.99609375 C-311.34944298 231.99627611 -313.67495294 232.99759219 -316 234 C-315.12085938 233.87882813 -314.24171875 233.75765625 -313.3359375 233.6328125 C-302.31861352 232.22033507 -291.30297477 231.42405815 -280.21435547 230.78564453 C-273.32249351 230.36853674 -266.51043255 229.74080459 -259.66488647 228.83961487 C-249.15770761 227.47217423 -238.60428114 226.49598088 -228.0625 225.4375 C-224.76740161 225.10506473 -221.47235819 224.77209273 -218.17735291 224.43873596 C-216.14499823 224.23328681 -214.1125823 224.02844239 -212.08009338 223.82432556 C-206.38254314 223.25025489 -200.69041907 222.64097205 -195 222 C-190.375 221.5 -190.375 221.5 -188.140625 221.265625 C-186.12251706 221.01520285 -184.12153349 220.63642584 -182.125 220.25 C-179 220 -179 220 -177.0625 221.4375 C-176.711875 221.953125 -176.36125 222.46875 -176 223 C-176.53625 223.61875 -177.0725 224.2375 -177.625 224.875 C-179.64816663 227.53706135 -181.23223026 230.10353756 -182.875 233 C-185.00234718 236.62180857 -186.90947266 239.01275267 -190.3515625 241.5078125 C-193.570399 244.42154602 -195.83194659 248.19919296 -198.265625 251.76953125 C-198.83796875 252.50558594 -199.4103125 253.24164063 -200 254 C-200.66 254 -201.32 254 -202 254 C-202.25136719 254.71285156 -202.50273438 255.42570312 -202.76171875 256.16015625 C-205.92290373 263.4099401 -211.65468256 270.1830369 -217 276 C-217.66 276 -218.32 276 -219 276 C-219.2371875 276.54140625 -219.474375 277.0828125 -219.71875 277.640625 C-221.34347757 280.63250137 -223.3501877 283.11159399 -225.5 285.75 C-226.2940625 286.73484375 -227.088125 287.7196875 -227.90625 288.734375 C-228.5971875 289.48203125 -229.288125 290.2296875 -230 291 C-230.66 291 -231.32 291 -232 291 C-232.25007813 291.57878906 -232.50015625 292.15757812 -232.7578125 292.75390625 C-234.16519751 295.29870619 -235.77282931 296.93448831 -237.875 298.9375 C-240.83416168 301.81668433 -243.45103993 304.74787853 -246 308 C-246.73734375 308.72832031 -247.4746875 309.45664062 -248.234375 310.20703125 C-251.3428807 313.34627077 -254.20414511 316.6346916 -257.0625 320 C-257.57876953 320.60328125 -258.09503906 321.2065625 -258.62695312 321.828125 C-260.0924572 323.54565844 -261.54840521 325.27070432 -263 327 C-263.76183594 327.9075 -264.52367187 328.815 -265.30859375 329.75 C-267.16834028 331.97621954 -267.16834028 331.97621954 -268 335 C-268.66 335 -269.32 335 -270 335 C-270 335.99 -270 336.98 -270 338 C-271.64429829 339.68873879 -273.31384218 341.35305515 -275 343 C-275.556875 343.928125 -276.11375 344.85625 -276.6875 345.8125 C-277.120625 346.534375 -277.55375 347.25625 -278 348 C-278.66 348 -279.32 348 -280 348 C-280.268125 348.58523438 -280.53625 349.17046875 -280.8125 349.7734375 C-283.93789095 355.63354553 -289.24126347 360.27283293 -293.9375 364.875 C-298.05291923 368.94038374 -301.71138564 373.18498128 -305.25390625 377.75390625 C-306.70414672 379.61942811 -308.19726497 381.40822613 -309.75 383.1875 C-311.46440981 385.33051226 -312.74770513 387.19688453 -314.0625 389.5625 C-315.82424395 392.68817474 -317.58941372 395.34835509 -320 398 C-320.66 398 -321.32 398 -322 398 C-322.33 398.99 -322.66 399.98 -323 401 C-323.9793879 402.02019573 -324.97895449 403.02149805 -326 404 C-326.33 404.66 -326.66 405.32 -327 406 C-327.66 406 -328.32 406 -329 406 C-329.2578125 406.56203125 -329.515625 407.1240625 -329.78125 407.703125 C-331.14169777 410.26704579 -332.72788962 412.45226365 -334.5 414.75 C-335.1084375 415.54921875 -335.716875 416.3484375 -336.34375 417.171875 C-336.8903125 417.77515625 -337.436875 418.3784375 -338 419 C-338.66 419 -339.32 419 -340 419 C-340.25394531 419.55171875 -340.50789063 420.1034375 -340.76953125 420.671875 C-345.4153936 429.46214154 -352.36578637 437.38098051 -359.3828125 444.375 C-362.06147045 447.06165395 -364.63348016 449.81982843 -367.1875 452.625 C-368.04730469 453.56601562 -368.90710937 454.50703125 -369.79296875 455.4765625 C-372.08568148 457.98743196 -372.08568148 457.98743196 -374 461 C-374.66 461 -375.32 461 -376 461 C-376.20625 461.680625 -376.4125 462.36125 -376.625 463.0625 C-378.42895027 466.91639375 -380.9010345 470.07787764 -384 473 C-384.66 473 -385.32 473 -386 473 C-386 473.99 -386 474.98 -386 476 C-387.61974559 477.71230248 -389.2958946 479.37163262 -391 481 C-392.21382722 482.43742697 -393.42661806 483.87600487 -394.61328125 485.3359375 C-396.21077638 487.25293165 -397.88772523 489.08774877 -399.5625 490.9375 C-402.63002985 494.41358732 -404.86154925 497.89417456 -407 502 C-407.99 502 -408.98 502 -410 502 C-410.66 503.65 -411.32 505.3 -412 507 C-412.66 507 -413.32 507 -414 507 C-414.4021875 507.86625 -414.4021875 507.86625 -414.8125 508.75 C-416.02929189 511.05550043 -417.30333879 513.02056192 -419 515 C-419.66 515 -420.32 515 -421 515 C-421.20625 515.763125 -421.4125 516.52625 -421.625 517.3125 C-423.4733339 520.92515263 -425.29035179 521.44301706 -429 523 C-432.35791016 523.72021484 -432.35791016 523.72021484 -436.0390625 524.2109375 C-436.70899734 524.30409241 -437.37893219 524.39724731 -438.06916809 524.4932251 C-439.50594941 524.69235858 -440.94336247 524.88697771 -442.38131714 525.07745361 C-446.2195957 525.58646758 -450.05311009 526.12896344 -453.88671875 526.671875 C-454.66098709 526.78097198 -455.43525543 526.89006897 -456.23298645 527.00247192 C-463.33792162 528.01804363 -470.38524625 529.29390036 -477.4375 530.625 C-488.04467895 532.62605109 -498.62416928 533.98165785 -509.38647461 534.83642578 C-516.95931314 535.52757276 -516.95931314 535.52757276 -523 540 C-523.66 540 -524.32 540 -525 540 C-525.66 541.32 -526.32 542.64 -527 544 C-527.66 544 -528.32 544 -529 544 C-529 544.66 -529 545.32 -529 546 C-530.3793471 547.18688006 -531.76284003 548.3710978 -533.19921875 549.48828125 C-535.61892296 551.51957307 -537.78267586 553.74841945 -540 556 C-542.60094874 558.62820258 -545.20648408 561.25182311 -547.8125 563.875 C-548.48603516 564.55691406 -549.15957031 565.23882813 -549.85351562 565.94140625 C-553.85361458 569.96064443 -557.96140744 573.77533884 -562.2565918 577.47705078 C-564.26622165 579.23255716 -566.14685407 581.08067028 -568 583 C-572.66305912 587.72718763 -577.57078934 592.11061393 -582.8125 596.1875 C-584.94984016 597.95843899 -586.44682863 599.71111587 -588 602 C-590.97 601.34 -593.94 600.68 -597 600 C-596.58923695 594.04393582 -595.66257756 590.88343675 -592 586 C-591.30570621 584.6808418 -590.62469505 583.35350594 -590 582 C-589.34 582 -588.68 582 -588 582 C-587.95875 581.21625 -587.9175 580.4325 -587.875 579.625 C-586.83455374 575.31457977 -584.94605164 572.29688397 -582.60546875 568.56640625 C-581.17852149 566.28537377 -579.85196833 563.98545531 -578.5625 561.625 C-576.49528562 557.8865636 -574.42071635 554.15301353 -572.3125 550.4375 C-571.73113281 549.40496094 -571.14976563 548.37242187 -570.55078125 547.30859375 C-569.78314453 546.16583984 -569.78314453 546.16583984 -569 545 C-568.34 545 -567.68 545 -567 545 C-566.566875 543.4221875 -566.566875 543.4221875 -566.125 541.8125 C-565.22774807 538.77181289 -564.23576581 535.91287656 -563 533 C-562.34 533 -561.68 533 -561 533 C-560.9175 532.29875 -560.835 531.5975 -560.75 530.875 C-559.81620441 527.29545023 -558.10743957 525.04407938 -556 522 C-553.90398856 518.39787256 -551.86484685 514.76095323 -550.02734375 511.01953125 C-548.85287355 508.71078185 -547.53688639 506.52349986 -546.1875 504.3125 C-544.20336922 501.03290518 -542.27866099 497.73686674 -540.4375 494.375 C-538.77526445 491.36688987 -537.08312149 488.38335855 -535.3125 485.4375 C-534.91675781 484.77621094 -534.52101563 484.11492187 -534.11328125 483.43359375 C-533.74589844 482.96050781 -533.37851563 482.48742187 -533 482 C-532.34 482 -531.68 482 -531 482 C-530.89816406 481.46890625 -530.79632812 480.9378125 -530.69140625 480.390625 C-529.79691899 477.2978216 -528.40138873 474.61548432 -526.9375 471.75 C-526.38964844 470.67234375 -525.84179688 469.5946875 -525.27734375 468.484375 C-524.85582031 467.66453125 -524.43429687 466.8446875 -524 466 C-523.34 466 -522.68 466 -522 466 C-521.896875 465.28070312 -521.79375 464.56140625 -521.6875 463.8203125 C-520.92518285 460.69307965 -519.72285625 458.58352881 -518 455.875 C-516.30329901 453.19127583 -515.00743074 451.02229222 -514 448 C-513.34 448 -512.68 448 -512 448 C-511.86980469 447.41605469 -511.73960938 446.83210938 -511.60546875 446.23046875 C-510.1821845 440.98727324 -507.31648314 436.36518403 -504.25 431.92578125 C-500.75917892 426.73821794 -497.72062137 421.33901165 -494.6875 415.875 C-490.45865891 408.31360866 -486.17391167 400.80482559 -481.62768555 393.42919922 C-480.11320586 390.95505284 -478.92238371 388.76715112 -478 386 C-477.34 386 -476.68 386 -476 386 C-475.87955322 385.4232251 -475.75910645 384.8464502 -475.63500977 384.25219727 C-474.96921835 381.89082632 -474.06142859 380.08882915 -472.83984375 377.96484375 C-472.39108887 377.17706543 -471.94233398 376.38928711 -471.47998047 375.57763672 C-470.99158691 374.7270166 -470.50319336 373.87639648 -470 373 C-468.95844986 371.14780159 -467.91813183 369.29490991 -466.87890625 367.44140625 C-465.77379433 365.48156958 -464.66832077 363.5219368 -463.5625 361.5625 C-463.01529297 360.58990234 -462.46808594 359.61730469 -461.90429688 358.61523438 C-458.77643186 353.07391611 -455.57359384 347.58856834 -452.28393555 342.1418457 C-450.83767736 339.72921535 -449.46030462 337.28820453 -448.125 334.8125 C-447.62871094 333.8946875 -447.13242188 332.976875 -446.62109375 332.03125 C-445.13678808 329.25577722 -443.66094556 326.47592931 -442.18676758 323.69506836 C-436.04535884 312.1249724 -429.82011958 300.63096747 -422.6796875 289.640625 C-420.87401987 286.80194752 -419.18116289 283.91401568 -417.5 281 C-414.70838121 276.17074875 -411.79541883 271.44349846 -408.76953125 266.7578125 C-407.51777454 264.80695105 -406.28807313 262.84185527 -405.07421875 260.8671875 C-404.14029297 259.35511719 -404.14029297 259.35511719 -403.1875 257.8125 C-402.34251953 256.42998047 -402.34251953 256.42998047 -401.48046875 255.01953125 C-400.99191406 254.35308594 -400.50335937 253.68664062 -400 253 C-399.34 253 -398.68 253 -398 253 C-397.731875 252.27425781 -397.46375 251.54851562 -397.1875 250.80078125 C-396.01329619 248.03135976 -394.6605676 245.69080566 -393 243.1875 C-392.484375 242.39730469 -391.96875 241.60710937 -391.4375 240.79296875 C-390.963125 240.20128906 -390.48875 239.60960937 -390 239 C-389.34 239 -388.68 239 -388 239 C-387.77183594 238.30777344 -387.54367187 237.61554688 -387.30859375 236.90234375 C-385.71113937 233.35933298 -383.49700082 230.55271126 -381.0625 227.5625 C-380.06611223 226.319246 -379.07002711 225.07574939 -378.07421875 223.83203125 C-377.5642334 223.19861816 -377.05424805 222.56520508 -376.52880859 221.91259766 C-375.05004973 220.06261412 -373.59326228 218.19777697 -372.14453125 216.32421875 C-366.6936782 209.28046601 -361.03188955 202.56039796 -355 196 C-353.80768767 194.65006855 -352.61993126 193.29609483 -351.4375 191.9375 C-350.88578125 191.30714844 -350.3340625 190.67679688 -349.765625 190.02734375 C-348.45722982 188.52500504 -347.15628091 187.01617428 -345.859375 185.50390625 C-345.14265625 184.67761719 -344.4259375 183.85132813 -343.6875 183 C-342.70330078 181.8553125 -342.70330078 181.8553125 -341.69921875 180.6875 C-340 179 -340 179 -338 179 C-337.773125 178.443125 -337.54625 177.88625 -337.3125 177.3125 C-334.88579746 173.03688123 -331.56749627 169.86083181 -327 168 C-327 167.34 -327 166.68 -327 166 C-325.59321977 164.75185669 -324.12120296 163.5769161 -322.625 162.4375 C-317.86495731 158.74202526 -313.42788646 154.80586833 -309.03125 150.6875 C-307 149 -307 149 -305 149 C-305 148.34 -305 147.68 -305 147 C-302.91080031 145.21183773 -300.81343866 143.53397769 -298.625 141.875 C-297.31993779 140.8702782 -296.01525145 139.86506799 -294.7109375 138.859375 C-294.06995117 138.36759766 -293.42896484 137.87582031 -292.76855469 137.36914062 C-290.56227369 135.66113071 -288.40634282 133.89547094 -286.25 132.125 C-274.87655689 123.03366701 -262.95426989 114.74335376 -250.54516602 107.13378906 C-246.83285447 104.84742262 -243.27396655 102.49925351 -239.81640625 99.83984375 C-236.70817639 97.46221683 -233.62944061 95.64402201 -230.0625 94 C-225.52294625 91.81873015 -221.41388191 89.43193943 -217.328125 86.4921875 C-214.02376875 84.37429473 -210.52155783 82.72433225 -207 81 C-205.68888943 80.33572551 -204.37896951 79.66909519 -203.0703125 79 C-196.75414863 75.79097489 -190.50290017 72.70264364 -183.875 70.18359375 C-179.7404709 68.48147104 -175.72245732 66.54940051 -171.6875 64.625 C-170.85589355 64.22893555 -170.02428711 63.83287109 -169.16748047 63.42480469 C-165.59106442 61.71907534 -162.01716233 60.00824169 -158.4453125 58.29296875 C-152.94616911 55.69424637 -147.40954564 53.35712437 -141.69921875 51.265625 C-133.67332178 48.28890718 -125.73662453 45.11423625 -117.81134033 41.88052368 C-115.4198453 40.90479699 -113.02718585 39.93197147 -110.63427734 38.9597168 C-103.62120833 36.10914059 -96.61133019 33.25079092 -89.60404968 30.38601685 C-40.90614791 10.47980912 -40.90614791 10.47980912 -19.265625 3.1171875 C-17.24386698 2.42553344 -15.23091511 1.70670492 -13.234375 0.9453125 C-8.31861982 -0.89402636 -5.14437463 -1.20400257 0 0 Z " fill="#4D41B1" transform="translate(1919,93)"/>
<path d="M0 0 C4.41782349 0.00575867 8.835587 0.00235939 13.25340843 -0.00357246 C16.72476644 -0.00721331 20.19611056 -0.00602448 23.66746902 -0.00344467 C25.29623039 -0.00278835 26.92499312 -0.00355718 28.5537529 -0.00592422 C37.59894338 -0.01621798 46.55969687 0.19963014 55.57991028 0.89569092 C59.98027561 1.20825641 64.37663665 1.3140276 68.78588867 1.42138672 C82.37040949 1.75591855 95.81564862 2.68633257 109.33227539 4.02636719 C115.98599884 4.67483934 122.60367221 5.18298443 129.28646851 5.41186523 C143.99400978 5.92588851 158.54272338 7.64331558 173.14434814 9.38568115 C179.2399361 10.1125681 185.33678666 10.82840166 191.43457031 11.53662109 C192.71814423 11.68574448 194.00171814 11.83486786 195.32418823 11.98851013 C203.38575819 12.90402515 211.40518487 13.5608498 219.50756836 13.94140625 C224.26400981 14.20762114 228.92921136 14.83978169 233.63378906 15.56787109 C239.71533731 16.49781658 245.78571569 17.22781486 251.9132843 17.76774597 C264.84533696 18.91328135 277.62330671 20.74434284 290.44628906 22.75537109 C291.56574921 22.92922333 292.68520935 23.10307556 293.83859253 23.28219604 C328.36017136 28.65144697 362.66243011 35.11333128 396.88378906 42.13037109 C396.88378906 42.79037109 396.88378906 43.45037109 396.88378906 44.13037109 C398.0890625 44.23220703 399.29433594 44.33404297 400.53613281 44.43896484 C406.9563466 45.15232193 413.1714126 46.69620715 419.44628906 48.19287109 C420.64576172 48.47453125 421.84523438 48.75619141 423.08105469 49.04638672 C426.01643586 49.73637672 428.95059777 50.43114118 431.88378906 51.13037109 C431.88378906 51.79037109 431.88378906 52.45037109 431.88378906 53.13037109 C432.97691406 53.23349609 434.07003906 53.33662109 435.19628906 53.44287109 C444.34387818 54.61235271 452.93078761 57.77924942 461.55566406 60.92333984 C465.64110198 62.40503036 469.75416428 63.77756297 473.88378906 65.13037109 C473.88378906 65.79037109 473.88378906 66.45037109 473.88378906 67.13037109 C474.77066406 67.23349609 475.65753906 67.33662109 476.57128906 67.44287109 C480.0544403 68.16578928 481.89393046 69.25301802 484.88378906 71.13037109 C487.85683773 72.52649868 490.86564746 73.83500313 493.88378906 75.13037109 C493.88378906 75.79037109 493.88378906 76.45037109 493.88378906 77.13037109 C494.61339844 77.39978516 495.34300781 77.66919922 496.09472656 77.94677734 C498.81247471 79.10010744 501.06649956 80.41869622 503.50878906 82.06787109 C504.26417969 82.57189453 505.01957031 83.07591797 505.79785156 83.59521484 C509.46266163 86.29235035 510.69871699 87.37774465 511.82128906 91.94287109 C512.06365562 95.02599922 511.82632306 96.27403611 510.63378906 99.25537109 C503.88898308 106.30675916 495.64731534 108.79959909 486.24316406 110.48974609 C482.90195965 111.05510597 482.90195965 111.05510597 479.83691406 112.11474609 C474.01785154 113.82359476 467.89953949 114.09619669 461.88378906 114.63037109 C460.83689911 114.72458847 460.83689911 114.72458847 459.76885986 114.82070923 C454.47647253 115.29189428 449.18140453 115.72241531 443.88378906 116.13037109 C443.16557983 116.18578064 442.44737061 116.24119019 441.70739746 116.29827881 C418.86741754 118.02624782 396.02920394 118.31378559 373.13378906 118.31787109 C371.83237976 118.3188681 370.53097046 118.31986511 369.19012451 118.32089233 C352.43579022 118.31943803 335.72086385 117.9870557 318.98223877 117.26022339 C314.59694697 117.07644109 310.21053993 116.92537771 305.82398987 116.77488708 C291.63475103 116.09197791 291.63475103 116.09197791 286.69628906 111.38037109 C285.99375 110.57599609 285.29121094 109.77162109 284.56738281 108.94287109 C258.54589129 81.67143893 210.64341739 65.07878455 175.77832031 53.13037109 C172.11988745 51.86645906 168.50476237 50.49720265 164.88378906 49.13037109 C152.17506699 44.35945925 139.28428688 40.57915339 126.18505859 37.03027344 C122.91204256 36.13807279 119.64566951 35.22442455 116.37988281 34.30615234 C103.88705053 30.82312551 91.40079715 27.86619286 78.66113281 25.44287109 C73.74318142 24.50625782 68.84435761 23.49575234 63.95019531 22.44287109 C20.40224948 13.11219114 -22.35334083 8.86337023 -66.88720703 9.22631836 C-69.59874451 9.24798033 -72.31021678 9.26420681 -75.02182007 9.27476501 C-77.55167496 9.2850333 -80.08151405 9.3034727 -82.61123657 9.33131409 C-88.50970032 9.34870688 -93.56145526 9.18665503 -99.11621094 7.13037109 C-99.11621094 6.47037109 -99.11621094 5.81037109 -99.11621094 5.13037109 C-67.18526145 -2.00846757 -32.58002331 -0.04285408 0 0 Z " fill="#CFCFCF" transform="translate(815.1162109375,394.86962890625)"/>
<path d="M0 0 C0 0.66 0 1.32 0 2 C0.58265625 2.23460937 1.1653125 2.46921875 1.765625 2.7109375 C14.28907937 9.93600733 21.42723659 32.99948826 25 46 C27.67654505 56.970295 29.15202318 67.8847206 29.16796875 79.171875 C29.17296135 80.43828827 29.17296135 80.43828827 29.17805481 81.73028564 C29.18308253 83.50508079 29.18546443 85.27988524 29.18530273 87.0546875 C29.18748315 89.72933011 29.20566697 92.40355538 29.22460938 95.078125 C29.25627878 104.5742576 28.88994283 113.65420314 27 123 C26.85393311 123.76876465 26.70786621 124.5375293 26.55737305 125.32958984 C22.13617758 147.56765912 13.71859593 169.99708018 -5.81640625 183.23046875 C-13.40477128 187.38963974 -22.51996935 188.12662551 -30.85546875 185.84375 C-45.7516635 179.98295206 -54.40103274 166.26714736 -60.69140625 152.328125 C-76.72953791 115.09622034 -76.46406823 67.70956951 -62 30 C-55.97193277 15.44949289 -47.16274504 0.91888973 -32.3125 -5.9375 C-20.02912372 -9.75629223 -10.44349728 -6.22165795 0 0 Z " fill="#CFCFCF" transform="translate(1363,760)"/>
<path d="M0 0 C1.57086924 0.18504706 3.14183285 0.36929483 4.71289062 0.55273438 C16.88313724 1.99394673 16.88313724 1.99394673 21.8125 3.0625 C21.31459754 7.62788254 21.31459754 7.62788254 19.09765625 9.546875 C17.99744141 10.17335938 17.99744141 10.17335938 16.875 10.8125 C-6.71467564 25.55604728 -19.56689731 52.66010439 -25.85400391 78.93969727 C-26.31620203 80.97725757 -26.75707892 83.01799987 -27.1875 85.0625 C-27.33316406 85.74473633 -27.47882813 86.42697266 -27.62890625 87.12988281 C-36.20328406 128.59202057 -28.86183735 173.05791281 -6.00732422 208.9140625 C0.68642277 219.07559028 8.16624016 227.96499344 18.37890625 234.7734375 C19.08853516 235.41152344 19.08853516 235.41152344 19.8125 236.0625 C19.8125 237.0525 19.8125 238.0425 19.8125 239.0625 C-19.66650925 257.45771998 -19.66650925 257.45771998 -29.640625 254.28125 C-49.96893573 245.33167924 -62.7079273 221.79694197 -70.81640625 202.24609375 C-71.99838408 199.20117773 -73.10840329 196.14505173 -74.1875 193.0625 C-74.67714725 191.78077631 -75.16812684 190.49956112 -75.66015625 189.21875 C-78.37531611 181.98943391 -80.34676828 174.55613883 -82.1875 167.0625 C-82.35846191 166.36882324 -82.52942383 165.67514648 -82.70556641 164.96044922 C-93.37990199 118.94885317 -83.57185317 60.10625725 -59.1875 20.0625 C-43.2419458 -3.81061706 -25.81485604 -3.17927738 0 0 Z " fill="#4D42B2" transform="translate(1289.1875,726.9375)"/>
<path d="M0 0 C1.14597656 0.23332031 2.29195312 0.46664062 3.47265625 0.70703125 C29.81668938 6.87745184 54.34446998 22.14372817 69.0625 45.125 C75.38233899 55.76441827 81.2670502 67.30726099 81 80 C79.44299049 83.97534343 78.580879 85.61274734 75 88 C71.625 88.4375 71.625 88.4375 68 88 C65.93987897 86.37358866 64.65065156 84.99398708 63 83 C61.85724609 81.76830078 61.85724609 81.76830078 60.69140625 80.51171875 C54 73.29836193 54 73.29836193 54 71 C53.45085937 70.75636719 52.90171875 70.51273438 52.3359375 70.26171875 C49.49413846 68.7267671 47.15240383 66.82403647 44.625 64.8125 C33.61007897 56.37249557 21.33200011 51.42795271 8 48 C6.13214844 47.51853516 6.13214844 47.51853516 4.2265625 47.02734375 C-31.77313944 38.8578126 -70.56489801 47.6404954 -101.68457031 66.50146484 C-111.46130392 72.82892065 -119.60330881 81.38167484 -127.671875 89.69921875 C-130.31373702 92.31005219 -131.15986097 92.90665122 -134.8125 93.3125 C-138.85211856 92.91645896 -140.29729155 92.01158942 -143 89 C-144.29239835 83.58933746 -143.73373779 79.29196705 -142.125 74.0625 C-141.90448975 73.3310376 -141.68397949 72.5995752 -141.45678711 71.84594727 C-137.85550685 60.68281681 -131.61213273 49.91176515 -124 41 C-123.34 41 -122.68 41 -122 41 C-121.75765625 40.43539062 -121.5153125 39.87078125 -121.265625 39.2890625 C-111.94044049 22.42314236 -86.33747537 9.54257368 -68.8671875 3.80078125 C-65.09133359 2.74621715 -61.30728182 1.74740199 -57.5 0.8125 C-56.82372559 0.64508301 -56.14745117 0.47766602 -55.45068359 0.30517578 C-37.97486629 -3.73926343 -17.52043226 -3.70995689 0 0 Z " fill="#FE9467" transform="translate(880,802)"/>
<path d="M0 0 C1.51400391 0.94939453 1.51400391 0.94939453 3.05859375 1.91796875 C26.63350542 17.45533551 44.40413917 40.14022746 50.6796875 68.01953125 C53.72112887 84.24749584 53.72112887 84.24749584 51.08984375 89.984375 C49.07626992 92.70367085 47.16374103 93.94200839 44 95.0625 C40.31851156 94.98580232 38.96932725 94.1487956 36 92 C33.97265625 89.36328125 33.97265625 89.36328125 32.0625 86.3125 C31.36898437 85.23613281 30.67546875 84.15976562 29.9609375 83.05078125 C29.31382812 82.04402344 28.66671875 81.03726563 28 80 C9.71318829 53.15652506 -18.05781738 36.8157678 -49.49389648 30.43774414 C-75.00926092 25.98094449 -101.34561102 29.76948762 -123.1875 44.08984375 C-126.74519066 46.63037551 -130.12505029 49.10153013 -133.1796875 52.23828125 C-135 54 -135 54 -137 54 C-137.33 54.99 -137.66 55.98 -138 57 C-140.80430822 59.24344658 -142.38403898 60 -146 60 C-149.91240083 58.69586639 -151.57902228 57.34664567 -154 54 C-155.05084875 40.6332039 -147.07477581 27.49146793 -138.90625 17.41796875 C-136.67669407 14.86261504 -134.37816035 12.41740392 -132 10 C-131.23945313 9.2265625 -130.47890625 8.453125 -129.6953125 7.65625 C-95.64749717 -24.94034697 -38.40718666 -24.2724151 0 0 Z " fill="#FE9467" transform="translate(577,790)"/>
<path d="M0 0 C0.99 0.33 1.98 0.66 3 1 C2.29875 1.69867188 1.5975 2.39734375 0.875 3.1171875 C-1.07654439 5.06735756 -3.01158089 7.03234797 -4.9375 9.0078125 C-5.9582866 10.04692091 -6.97912041 11.08598295 -8 12.125 C-8.50789063 12.64964844 -9.01578125 13.17429687 -9.5390625 13.71484375 C-12.47945363 16.6929322 -15.26781313 19.01041509 -19 21 C-17.54254576 17.63664406 -15.68882146 15.45465995 -13.0859375 12.890625 C-12.32539063 12.13652344 -11.56484375 11.38242187 -10.78125 10.60546875 C-9.9871875 9.82816406 -9.193125 9.05085938 -8.375 8.25 C-7.57320313 7.45722656 -6.77140625 6.66445313 -5.9453125 5.84765625 C-3.96797154 3.89385507 -1.98611091 1.94487897 0 0 Z " fill="#331A23" transform="translate(309,424)"/>
<path d="M0 0 C0.66 0.33 1.32 0.66 2 1 C-3.11355429 7.2823667 -8.30774705 12.40727739 -15 17 C-13.67879172 14.06769807 -12.25361803 12.01335101 -9.9609375 9.765625 C-9.38085938 9.19199219 -8.80078125 8.61835938 -8.203125 8.02734375 C-7.59984375 7.44082031 -6.9965625 6.85429687 -6.375 6.25 C-5.76398438 5.64800781 -5.15296875 5.04601562 -4.5234375 4.42578125 C-3.02011376 2.94594695 -1.51065144 1.47235324 0 0 Z " fill="#311A21" transform="translate(1558,233)"/>
<path d="M0 0 C0.66 0.33 1.32 0.66 2 1 C1.67 1.99 1.34 2.98 1 4 C-2.63 4.33 -6.26 4.66 -10 5 C-6.76527494 2.84351662 -3.62848922 1.38542316 0 0 Z " fill="#2B1319" transform="translate(1610,323)"/>
</svg>
